<?xml version="1.0" encoding="UTF-8"?>
<svg width="32px" height="32px" viewBox="0 0 32 32" version="1.1" xmlns="http://www.w3.org/2000/svg" xmlns:xlink="http://www.w3.org/1999/xlink">
    <!-- Generator: Sketch 62 (91390) - https://sketch.com -->
    <title>svg/color/dai</title>
    <desc>Created with Sketch.</desc>
    <g id="color/dai" stroke="none" stroke-width="1" fill="none" fill-rule="evenodd">
        <circle id="Oval" fill="#FABF41" fill-rule="nonzero" cx="16" cy="16" r="16"></circle>
        <path d="M28,12.94 L25.58,12.94 C25.3914286,12.4685714 25.1714286,11.9971429 24.92,11.5257143 C24.0714286,10.1114286 22.8771429,8.98 21.3685714,8.19428571 C19.86,7.40857143 18.1,7 16.12,7 L8.45142857,7 L8.45142857,7.06285714 L8.45142857,12.94 L6,12.94 L6,15.14 L8.45142857,15.14 L8.45142857,17.6542857 L6,17.6542857 L6,19.8542857 L8.45142857,19.8542857 L8.45142857,25.8257143 L16.12,25.8257143 C18.1,25.8257143 19.86,25.4171429 21.3685714,24.6314286 C22.8771429,23.8457143 24.0714286,22.7142857 24.92,21.3 C25.2028571,20.8285714 25.4228571,20.3571429 25.6114286,19.8542857 L28,19.8542857 L28,17.6542857 L26.1142857,17.6542857 C26.1457143,17.2457143 26.1771429,16.8371429 26.1771429,16.4285714 C26.1771429,15.9885714 26.1457143,15.58 26.1142857,15.14 L28,15.14 L28,12.94 L28,12.94 Z M10.5885714,8.88571429 L16.0257143,8.88571429 C17.66,8.88571429 19.0742857,9.2 20.2685714,9.86 C21.4942857,10.4885714 22.4057143,11.4 23.0971429,12.5314286 C23.1914286,12.6885714 23.2542857,12.8142857 23.3485714,12.9714286 L10.5885714,12.9714286 L10.5885714,8.88571429 Z M23.0971429,20.3257143 C22.4371429,21.4571429 21.4942857,22.3371429 20.2685714,22.9971429 C19.0428571,23.6257143 17.6285714,23.9714286 16.0257143,23.9714286 L10.5885714,23.9714286 L10.5885714,19.8542857 L23.3485714,19.8542857 C23.2542857,20.0114286 23.1914286,20.1685714 23.0971429,20.3257143 Z M24.1028571,16.4285714 C24.1028571,16.8685714 24.0714286,17.2771429 24.0085714,17.6542857 L10.5885714,17.6542857 L10.5885714,15.14 L24.0085714,15.14 C24.0714286,15.5485714 24.1028571,15.9885714 24.1028571,16.4285714 Z" id="Shape" fill="#FFFFFF" fill-rule="nonzero"></path>
    </g>
</svg>