<?xml version="1.0" encoding="UTF-8"?>
<svg width="32px" height="32px" viewBox="0 0 32 32" version="1.1" xmlns="http://www.w3.org/2000/svg" xmlns:xlink="http://www.w3.org/1999/xlink">
    <!-- Generator: Sketch 56.3 (81716) - https://sketch.com -->
    <title>svg/color/scc</title>
    <desc>Created with Sketch.</desc>
    <g id="color/scc" stroke="none" stroke-width="1" fill="none" fill-rule="evenodd">
        <circle id="Oval" fill="#25AAE2" fill-rule="nonzero" cx="16" cy="16" r="16"></circle>
        <path d="M12.4571499,23.194087 C11.1681431,22.9949832 9.94625084,22.4876478 8.89530269,21.7151914 C8.2156266,21.2600017 7.64629222,20.6586423 7.22894143,19.9550973 C7.06409265,19.6467993 6.9548056,19.3118874 6.90608394,18.9656953 C6.90608394,18.7365706 6.90608394,18.6532526 7.16645288,18.7574001 L8.62451899,19.4135299 C8.73670298,19.4519987 8.81999219,19.5471864 8.8432289,19.6634841 C8.97476811,20.1559489 9.29708877,20.5757153 9.73889808,20.829937 C10.2977576,21.2494513 10.9531679,21.5216435 11.6447988,21.6214586 C11.894753,21.6214586 12.1655367,21.6214586 12.3009285,21.3819191 C12.4268847,21.1344864 12.3941653,20.8359227 12.2176105,20.6216418 C11.8818841,20.2093041 11.4631705,19.8722042 10.988669,19.6322398 C10.0166332,19.0982697 9.09922756,18.4703876 8.2495877,17.7575834 C7.55515563,17.2235223 7.11683512,16.4224537 7.04147579,15.5496547 C6.98366582,15.1898265 7.09283456,14.8232532 7.33808599,14.5536793 C7.58333741,14.2841054 7.93798578,14.1408632 8.30166149,14.1644919 C8.55277007,14.1398698 8.80622914,14.1574711 9.05152406,14.2165657 C10.8041503,14.618976 12.3489354,15.6488327 13.3944781,17.1118684 C13.6632996,17.5035797 13.8477262,17.946913 13.9360455,18.4137131 C13.9360455,18.6115935 13.9360455,18.7053264 13.7069208,18.6011788 C13.2903305,18.3928836 12.8633254,18.1845885 12.4259056,17.9867081 C12.309515,17.9238246 12.2259793,17.8137093 12.1967809,17.6846801 C11.7055223,16.673534 10.7389642,15.976986 9.62433574,15.8308532 C9.40037152,15.7948578 9.17512038,15.8873717 9.0411093,16.0703926 C8.91571421,16.2786252 8.91571421,16.5391192 9.0411093,16.7473519 C9.26944618,17.0975884 9.57607178,17.3899524 9.93677848,17.601362 C10.7699591,18.1637589 11.6239693,18.6428378 12.4571499,19.2573085 C13.2821759,19.7429685 13.8672432,20.5507388 14.0714374,21.4860667 C14.3109768,22.5692015 13.7694094,23.2149165 12.4571499,23.194087 Z M12.1134629,10.8630137 L9.19733067,12.2273469 C9.11899635,12.2681016 9.0257108,12.2681016 8.94737648,12.2273469 L6,10.8005251 C6.83318063,10.3943496 7.59345796,10.0610773 8.30166149,9.65490175 C8.7462004,9.35821981 9.32560344,9.35821981 9.77014235,9.65490175 C10.4887606,10.0714921 11.2386232,10.4047643 12.1134629,10.8630137 Z M22.5282208,12.2585912 L22.2678518,12.1544436 L19.8203837,10.9671612 C19.7266509,10.9671612 19.591259,10.9046727 19.5808443,10.8005251 C19.5704295,10.6963775 19.7266509,10.6234742 19.8203837,10.5818152 L22.1637042,9.43619184 C22.335565,9.34169411 22.5438256,9.34169411 22.7156864,9.43619184 L25.1735693,10.633889 C25.3818644,10.7276218 25.4964268,10.8213546 25.1735693,10.9671612 L22.6636126,12.1856879 L22.5282208,12.2585912 Z M6.15622137,7.30116647 L8.72866656,6.03056601 C8.80700088,5.98981133 8.90028644,5.98981133 8.97862075,6.03056601 L11.7801906,7.42614357 C11.7801906,7.57195018 11.6968726,7.59277969 11.6239693,7.62402397 L9.54101768,8.66549975 C9.36056679,8.76968312 9.13824213,8.76968312 8.95779124,8.66549975 C8.07253682,8.21766517 7.17686764,7.79066009 6.15622137,7.30116647 Z M21.9866533,12.5293749 L19.4037934,13.7583164 C19.247572,13.8416344 19.1121802,13.7583164 18.9872031,13.6854131 L16.9875696,12.7272553 C16.8313482,12.6439373 16.6855416,12.571034 16.6751268,12.3419093 C16.6647121,12.1127846 16.8001039,12.0398813 16.96674,11.9565632 L18.601857,11.1546269 C18.7223502,11.0674235 18.8776718,11.0441253 19.0184474,11.0921383 L21.9866533,12.5293749 Z M21.9345796,9.0508458 L19.0080326,10.4776676 C18.8726407,10.5401562 18.7789079,10.4776676 18.6747603,10.4151791 L16.8001039,9.50909514 C16.6959563,9.50909514 16.581394,9.40494756 16.581394,9.25914095 C16.581394,9.11333434 16.7167859,9.07167531 16.8209334,9.01960152 L19.1225949,7.89480767 C19.2433242,7.83182993 19.3872117,7.83182993 19.507941,7.89480767 L21.9345796,9.0508458 Z M17.4562337,22.0484636 C17.9540418,22.5021021 18.6179898,22.728448 19.2892311,22.6733491 C19.2683238,22.9402524 19.2683238,23.2083821 19.2892311,23.4752855 C19.3425697,23.681181 19.3108002,23.8998793 19.2010829,24.0820883 C19.0913657,24.2642973 18.9129341,24.394683 18.7060046,24.4438579 C17.956142,24.7563007 17.2375238,25.1416467 16.5084907,25.4853337 C16.2585365,25.6103108 16.1752185,25.5686518 16.1752185,25.2770386 C16.1752185,24.5167612 16.1752185,23.7460692 16.1752185,22.9753771 C16.1578971,22.7799255 16.2728488,22.5968542 16.4564169,22.5275425 C16.8001039,22.3921506 17.1333762,22.2150998 17.4562337,22.0484636 Z M12.1134629,13.7895606 L11.894753,13.6958278 L9.91594896,12.7168406 C9.8326309,12.7168406 9.69723905,12.7168406 9.69723905,12.5397897 C9.69723905,12.3627388 9.81180138,12.4148126 9.88470469,12.3731536 C10.7074706,11.9773928 11.5406512,11.581632 12.3530023,11.1754564 C12.4971643,11.1030191 12.6670897,11.1030191 12.8112517,11.1754564 L14.4880277,11.9878075 C14.6338343,12.0607108 14.7900557,12.1231994 14.7796409,12.3314945 C14.7692261,12.5397897 14.6338343,12.571034 14.4984424,12.6439373 L12.4154909,13.6854131 L12.1134629,13.7895606 Z M15.7898724,8.96752773 C15.7310073,8.97351505 15.6716866,8.97351505 15.6128215,8.96752773 L12.9883025,7.64485348 C12.8112517,7.56153542 12.8008369,7.4678026 12.9883025,7.37406978 L15.6128215,6.10346932 C15.7178067,6.05138207 15.8411086,6.05138207 15.9460938,6.10346932 L18.4977095,7.3428255 C18.6539308,7.42614357 18.8309817,7.50946163 18.4977095,7.65526824 L15.9565085,8.89462443 C15.9024676,8.92222885 15.8468228,8.9465735 15.7898724,8.96752773 Z M15.7898724,7.21784841 C15.1962312,7.21784841 14.7483966,7.47821736 14.7483966,7.85314864 C14.7483966,8.22807992 15.1754017,8.4572046 15.7377986,8.4572046 C16.3001955,8.4572046 16.6959563,8.20725041 16.7063711,7.84273388 C16.7167859,7.47821736 16.3522693,7.21784841 15.7898724,7.21784841 Z M24.9132003,14.8310364 C24.3781525,14.3076696 23.6367295,14.0516111 22.8927373,14.1332476 C22.8302487,12.8730619 22.8302487,12.8730619 23.9342131,12.3314945 L25.8401138,11.4045811 L25.9963351,11.5191434 C25.9963351,12.269006 25.9963351,13.0188685 25.9963351,13.7687311 C25.9963351,14.1644919 25.9234318,14.4248609 25.527671,14.5394232 C25.3641462,14.6082583 25.2072696,14.6919258 25.0590069,14.7893774 L24.9132003,14.8310364 Z M19.3100606,15.8204384 C18.4147371,16.5782335 17.7026163,17.5289147 17.227109,18.6011788 C17.0053875,18.6833374 16.7896314,18.7807756 16.581394,18.892792 C16.2897808,19.0594281 16.1439742,19.0594281 16.1648037,18.6428378 C16.1648037,17.9138048 16.1648037,17.1743569 16.1648037,16.4349091 C16.1427343,16.2302312 16.2630469,16.0368718 16.4564169,15.966245 C17.2791828,15.580899 18.1019487,15.1747234 18.9247145,14.7685479 C19.1850835,14.6435708 19.2892311,14.6644003 19.2788163,14.9872578 C19.2736626,15.2653502 19.2840937,15.543513 19.3100606,15.8204384 Z M22.861493,20.7882779 L23.6530146,19.6426546 C23.7347037,19.86574 23.7562548,20.106393 23.7155032,20.3404433 C23.7155032,20.569568 23.7884065,20.6424713 24.0071164,20.527909 L24.0904344,20.527909 C24.5070248,20.225881 25.2048135,20.2467105 25.3610349,19.7051431 C25.4345514,19.1835112 25.4345514,18.6541466 25.3610349,18.1325147 C25.4501518,18.1229752 25.5376645,18.1019721 25.6214038,18.0700261 C25.8505285,17.945049 25.9442613,18.0179523 25.9442613,18.2679065 C25.9442613,19.0698429 25.9442613,19.8613645 25.9442613,20.6633008 C25.9552091,20.8272679 25.8581063,20.979255 25.7047219,21.0382321 C24.8507118,21.4548224 23.9967016,21.860998 23.1531062,22.2880031 C22.8927373,22.4233949 22.819834,22.3400769 22.819834,22.0692931 C22.819834,21.7985094 22.861493,21.2048682 22.861493,20.7882779 Z M18.7893227,14.0811739 L15.9148495,15.4975809 C15.7929681,15.5556692 15.6513848,15.5556692 15.5295035,15.4975809 L13.0612058,14.289469 C12.9778878,14.289469 12.8424959,14.2269805 12.8424959,14.1020034 C12.8424959,13.9770263 12.967473,13.9561968 13.0507911,13.9145377 L14.4463686,13.2375785 C14.6754933,13.1230161 14.8108852,13.1230161 14.7692261,13.4354589 C14.7853341,13.6990535 14.7853341,13.9633858 14.7692261,14.2269805 C14.6963228,14.6019117 14.7692261,14.7477184 15.1858165,14.7268888 C15.5844378,14.6956511 15.9848923,14.6956511 16.3835136,14.7268888 C16.7688596,14.7268888 16.8730072,14.5810822 16.841763,14.2373952 C16.8105187,13.8937082 16.841763,13.6749983 16.7896892,13.3937998 C16.7896892,13.2792375 16.7896892,13.1230161 16.96674,13.2167489 L18.7893227,14.0811739 Z M19.7578952,22.6108606 C20.708008,22.3497027 21.5942617,21.8959408 22.3615846,21.2777715 C22.476147,22.548372 22.476147,22.5587868 21.3201088,23.1003542 C20.9035185,23.3086493 20.4660987,23.496115 20.0495084,23.7148249 C19.6329181,23.9335348 19.7162361,23.7668987 19.7162361,23.496115 C19.7162361,23.2253313 19.7578952,22.9233033 19.7578952,22.6108606 Z M22.3928289,14.2269805 C21.483205,14.5154649 20.6123061,14.9141896 19.7995542,15.4142629 C19.6641623,14.3727871 19.6745771,14.3727871 20.5598315,13.9770263 L22.0699714,13.2375785 C22.2990961,13.1126014 22.3928289,13.1750899 22.3824141,13.4354589 C22.3719994,13.6958278 22.3824141,13.987441 22.3928289,14.2269805 Z M17.0292286,19.19482 C16.8442141,20.0290745 16.9131315,20.8996109 17.227109,21.6943619 C16.1856332,22.2567588 16.1856332,22.2567588 16.1856332,21.0903059 L16.1856332,20.3508581 C16.1856332,19.4760184 16.1856332,19.4760184 17.0292286,19.19482 Z M25.4235234,17.6534358 C25.3089611,17.1118684 25.4235234,16.5598862 25.3297906,16.0183188 C25.285738,15.7444889 25.2266315,15.4732942 25.1527397,15.2059677 L25.7463809,14.893525 L25.9963351,14.976843 C25.9963351,15.622558 25.9963351,16.268273 25.9963351,16.913988 C26.0275794,17.3722373 25.8609433,17.601362 25.4235234,17.6534358 Z M13.1549387,10.8630137 L14.7588114,10.0819068 C14.9150327,10.0090035 14.9775213,10.0819068 14.9671065,10.2381282 C14.9671065,10.6651333 14.9671065,11.0921383 14.8837885,11.5087287 C14.8837885,11.623291 14.8212999,11.6753648 14.7171523,11.623291 L13.1549387,10.8630137 Z M16.6542973,10.2589577 C16.581394,10.0402478 16.6542973,9.89444118 16.8938367,10.029833 C17.1333762,10.1652249 17.7166026,10.4255938 18.1227782,10.6234742 C18.3206586,10.7172071 18.3310733,10.8109399 18.1227782,10.9150875 L16.96674,11.4774844 C16.7167859,11.6128762 16.6542973,11.4774844 16.6542973,11.2691892 C16.6542973,11.0608941 16.6542973,10.59223 16.6542973,10.2589577 Z M23.0802029,18.8719625 C22.9448111,18.8719625 22.8823225,18.8719625 22.8823225,18.7157411 C22.8823225,17.9346343 22.8823225,17.1639422 22.8823225,16.3828353 C22.8823225,16.3828353 22.9448111,16.2891025 22.9760553,16.2370287 C23.5125413,16.7015915 23.6854279,17.4606058 23.4030604,18.1116852 C23.3381652,18.3812014 23.2290691,18.6381051 23.0802029,18.8719625 Z M19.2684015,18.1533442 C19.3100508,18.9061027 19.3100508,19.6605882 19.2684015,20.4133466 C18.9361183,20.0896066 18.8012219,19.6135014 18.9142998,19.1635757 C18.8978432,18.7937978 19.0246845,18.4319272 19.2684015,18.1533442 Z M20.1849002,20.7674484 C20.8181073,20.3883295 21.4880673,20.0742858 22.1845337,19.8301202 C21.8996413,20.2101141 21.4967145,20.4848369 21.0389104,20.611227 C20.7785414,20.7257894 20.5077577,20.9236698 20.1849002,20.7674484 Z M22.3719994,17.8929752 C22.7052716,18.934451 22.1116304,19.4551889 21.1951317,19.7676317 C20.814863,19.9255759 20.4429179,20.1028582 20.0807527,20.2987843 C19.9037018,20.3925171 19.7682845,20.4237614 19.7682845,20.1529777 C19.7682845,19.4586605 19.7682845,18.7643433 19.7682845,18.0700261 C19.766558,17.9321118 19.8554439,17.8093646 19.9870198,17.7679981 L22.0699714,16.7265224 C22.2886813,16.61196 22.3615846,16.6744486 22.3511699,16.9035732 L22.3719994,17.8929752 Z" id="Combined-Shape" fill="#FFFFFF" fill-rule="nonzero"></path>
    </g>
</svg>