<?xml version="1.0" encoding="UTF-8"?>
<svg width="32px" height="32px" viewBox="0 0 32 32" version="1.1" xmlns="http://www.w3.org/2000/svg" xmlns:xlink="http://www.w3.org/1999/xlink">
    <!-- Generator: Sketch 60.1 (88133) - https://sketch.com -->
    <title>svg/color/xlp</title>
    <desc>Created with Sketch.</desc>
    <defs>
        <radialGradient cx="49.8179311%" cy="50.3099265%" fx="49.8179311%" fy="50.3099265%" r="53.1998455%" gradientTransform="translate(0.498179,0.503099),scale(1.000000,0.945945),rotate(115.963678),translate(-0.498179,-0.503099)" id="radialGradient-1">
            <stop stop-color="#969696" offset="0%"></stop>
            <stop stop-color="#FFFFFF" offset="100%"></stop>
        </radialGradient>
    </defs>
    <g id="color/xlp" stroke="none" stroke-width="1" fill="none" fill-rule="evenodd">
        <circle id="Oval" fill="#6C46DD" fill-rule="nonzero" cx="16" cy="16" r="16"></circle>
        <g id="Group-2" transform="translate(6.000000, 6.000000)" fill-rule="nonzero">
            <path d="M6.27837838,6.75015599e-14 C6.60972973,6.75015599e-14 6.91837838,0.167577277 7.09675676,0.444334034 L18.7654054,18.5162259 C18.8654054,18.6713611 18.9189189,18.8513611 18.9189189,19.0362259 C18.9179176,19.2929355 18.8149417,19.5387248 18.6326605,19.7194852 C18.4503793,19.9002457 18.2037359,20.001159 17.947027,20.0000194 L12.2756757,20.0000194 C11.9389189,20.0000194 11.627027,19.8275773 11.4497297,19.544334 L0.145945946,1.4719016 C0.0506224833,1.31956478 0,1.14349621 0,0.963793494 C0.00100132709,0.70708396 0.103977254,0.461294662 0.286258444,0.280534172 C0.468539634,0.0997736812 0.715182978,-0.00113955691 0.971891892,6.75015599e-14 L6.27837838,6.75015599e-14 Z" id="Path" fill="url(#radialGradient-1)"></path>
            <path d="M12.6405405,6.03961325e-14 L17.947027,6.03961325e-14 C18.2037359,-0.00113955691 18.4503793,0.0997736812 18.6326605,0.280534172 C18.8149417,0.461294662 18.9179176,0.70708396 18.9189189,0.963793494 C18.9189189,1.14379349 18.8681081,1.31946917 18.772973,1.4719016 L7.46918919,19.544334 C7.29076346,19.8283764 6.97867655,20.0005552 6.64324324,20.0000194 L0.971891892,20.0000194 C0.715182978,20.001159 0.468539634,19.9002457 0.286258444,19.7194852 C0.103977254,19.5387248 0.00100132709,19.2929355 0,19.0362259 C0,18.8519016 0.0535135135,18.6713611 0.153513514,18.5162259 L11.8216216,0.444334034 C12,0.167577277 12.3081081,6.03961325e-14 12.6405405,6.03961325e-14 Z" id="Path" fill="#FFFFFF"></path>
        </g>
    </g>
</svg>