<?xml version="1.0" encoding="UTF-8"?>
<svg width="32px" height="32px" viewBox="0 0 32 32" version="1.1" xmlns="http://www.w3.org/2000/svg" xmlns:xlink="http://www.w3.org/1999/xlink">
    <!-- Generator: Sketch 51.1 (57501) - http://www.bohemiancoding.com/sketch -->
    <title>svg/white/npxs</title>
    <desc>Created with Sketch.</desc>
    <defs></defs>
    <g id="white/npxs" stroke="none" stroke-width="1" fill="none" fill-rule="evenodd">
        <path d="M18.221369,15.0776001 L25,8.29896907 L23.7010309,7 L16.9223999,13.778631 L18.221369,15.0776001 Z M15.0789965,13.7800274 L8.29896907,7 L7,8.29896907 L13.7800274,15.0789965 L15.0789965,13.7800274 Z M13.8048741,16.8961568 L7,23.7010309 L8.29896907,25 L15.1038432,18.1951259 L13.8048741,16.8961568 Z M16.8975532,18.1965223 L23.7010309,25 L25,23.7010309 L18.1965223,16.8975532 L16.8975532,18.1965223 Z M16,32 C7.163444,32 0,24.836556 0,16 C0,7.163444 7.163444,0 16,0 C24.836556,0 32,7.163444 32,16 C32,24.836556 24.836556,32 16,32 Z M14.7154827,16.0144517 L16.006059,17.3050281 L17.3050281,16.006059 L16.0144517,14.7154827 L14.7154827,16.0144517 Z" id="Combined-Shape" fill="#FFFFFF" fill-rule="nonzero"></path>
    </g>
</svg>