<?xml version="1.0" encoding="UTF-8"?>
<svg width="32px" height="32px" viewBox="0 0 32 32" version="1.1" xmlns="http://www.w3.org/2000/svg" xmlns:xlink="http://www.w3.org/1999/xlink">
    <!-- Generator: Sketch 52.2 (67145) - http://www.bohemiancoding.com/sketch -->
    <title>svg/white/ont</title>
    <desc>Created with Sketch.</desc>
    <g id="white/ont" stroke="none" stroke-width="1" fill="none" fill-rule="evenodd">
        <path d="M16,32 C24.836556,32 32,24.836556 32,16 C32,7.163444 24.836556,0 16,0 C7.163444,0 0,7.163444 0,16 C0,24.836556 7.163444,32 16,32 Z M9.61380979,9.6136199 L9.61406297,9.61336672 L21.7508246,21.7501284 C20.1903874,23.3618986 18.004269,24.3640014 15.5836387,24.3640014 C10.8430188,24.3640014 7,20.5211725 7,15.7805526 L7.00018989,15.7661844 L7.00018989,7 L9.61380979,9.6136199 Z M16.4163613,7 C21.1569812,7 25,10.8430188 25,15.5836387 L24.9998101,15.5980069 L24.9998101,24.3640014 L22.3861902,21.7505714 L22.385937,21.7508246 L10.2491754,9.61406297 C11.8096126,8.00229272 13.9957943,7 16.4163613,7 Z" id="Combined-Shape" fill="#FFFFFF" fill-rule="nonzero"></path>
    </g>
</svg>