<?xml version="1.0" encoding="UTF-8"?>
<svg width="32px" height="32px" viewBox="0 0 32 32" version="1.1" xmlns="http://www.w3.org/2000/svg" xmlns:xlink="http://www.w3.org/1999/xlink">
    <!-- Generator: Sketch 51.1 (57501) - http://www.bohemiancoding.com/sketch -->
    <title>svg/white/vex</title>
    <desc>Created with Sketch.</desc>
    <defs></defs>
    <g id="white/vex" stroke="none" stroke-width="1" fill="none" fill-rule="evenodd">
        <path d="M16,32 C7.163444,32 0,24.836556 0,16 C0,7.163444 7.163444,0 16,0 C24.836556,0 32,7.163444 32,16 C32,24.836556 24.836556,32 16,32 Z M7,7.86304554 C7.91448159,7.8375011 8.39025661,8.3506556 8.75075716,9.03525148 C9.20535227,9.89826722 9.69509955,10.7457922 10.0957748,11.6335336 L16.0987538,25 L18.991063,18.5188918 C18.991063,18.5188918 18.7965344,18.0479122 18.6863115,17.8069113 C17.7163497,15.6861626 16.8017973,13.5400923 15.8440495,11.4139814 C15.1606673,9.89647982 15.3867732,8.54639789 16.4970458,7.32590239 C16.570925,7.24457574 16.7353657,7.09354054 16.9352564,7 C13.628695,7 10.2381374,7 7,7 L7,7.86304206 Z M24.3032124,7.03842908 L24.3032124,7.04111017 C22.8280125,7.04081227 21.3525148,7.03217318 19.8773149,7.04706817 C19.499578,7.05094087 19.1078397,7.08043295 18.7476789,7.18439998 C17.6636215,7.49689688 16.8363537,8.21423961 16.5804578,9.36026017 C16.4467008,9.95993248 16.7219602,10.7392384 16.9561094,11.2641378 C17.6636215,12.8522417 18.3782831,14.4370687 19.092051,16.0224914 C19.2180627,16.3025173 19.4003773,16.6668487 19.5949059,17.0856958 L23.4455588,8.98192741 C23.6940072,8.53060921 23.9978651,8.02030684 24.5611936,7.93749069 L25.1692071,7.93749069 L25.1692071,7.0383499 L24.3032124,7.03842908 Z" id="Combined-Shape" fill="#FFFFFF" fill-rule="nonzero"></path>
    </g>
</svg>