<?xml version="1.0" encoding="UTF-8"?>
<svg width="32px" height="32px" viewBox="0 0 32 32" version="1.1" xmlns="http://www.w3.org/2000/svg" xmlns:xlink="http://www.w3.org/1999/xlink">
    <!-- Generator: Sketch 51.1 (57501) - http://www.bohemiancoding.com/sketch -->
    <title>svg/black/dax</title>
    <desc>Created with Sketch.</desc>
    <defs></defs>
    <g id="black/dax" stroke="none" stroke-width="1" fill="none" fill-rule="evenodd">
        <path d="M16,32 C7.163444,32 0,24.836556 0,16 C0,7.163444 7.163444,0 16,0 C24.836556,0 32,7.163444 32,16 C32,24.836556 24.836556,32 16,32 Z M17.294604,14.5694497 C17.294604,10.9412081 14.353396,8 10.7251544,8 L8,8 L8,11.7485101 L10.7401879,11.7485101 C12.4885906,11.7485101 13.9060403,13.1659597 13.9060403,14.9143624 L13.9060403,17.0856376 C13.9060403,18.8340403 12.4885906,20.2514899 10.7401879,20.2514899 L8,20.2514899 L8,24 L10.7251544,24 C14.353396,24 17.294604,21.0587919 17.294604,17.4305503 L17.294604,14.5694497 Z M18.0497181,19.2004295 C17.7451812,20.4636779 17.123651,21.6047248 16.2736107,22.5286443 C17.4039195,23.4482685 18.8452081,24 20.4157852,24 L23.1409396,24 L23.1409396,20.2514899 L20.4007517,20.2514899 C19.4665235,20.2514899 18.6291544,19.8442953 18.0497181,19.2004295 Z M20.4157852,8 C18.8452081,8 17.4039195,8.55173154 16.2736107,9.47114094 C17.123651,10.3952752 17.7451812,11.5363221 18.0497181,12.7993557 C18.6291544,12.1557047 19.4665235,11.7485101 20.4007517,11.7485101 L23.1409396,11.7485101 L23.1409396,8 L20.4157852,8 Z" id="Combined-Shape" fill="#000000" fill-rule="nonzero"></path>
    </g>
</svg>