<?xml version="1.0" encoding="UTF-8"?>
<svg width="32px" height="32px" viewBox="0 0 32 32" version="1.1" xmlns="http://www.w3.org/2000/svg" xmlns:xlink="http://www.w3.org/1999/xlink">
    <!-- Generator: Sketch 52.2 (67145) - http://www.bohemiancoding.com/sketch -->
    <title>svg/black/pxg</title>
    <desc>Created with Sketch.</desc>
    <g id="black/pxg" stroke="none" stroke-width="1" fill="none" fill-rule="evenodd">
        <path d="M16,32 C24.836556,32 32,24.836556 32,16 C32,7.163444 24.836556,0 16,0 C7.163444,0 0,7.163444 0,16 C0,24.836556 7.163444,32 16,32 Z M12.8704191,19.1295809 L12.8704191,13.4147038 L18.5852962,13.4147038 L18.5852962,19.1295809 L12.8704191,19.1295809 Z M7.00448032,25 L7.00448032,21.928738 L10.071262,21.928738 L10.071262,25 L7.00448032,25 Z M7,7 L24.9999253,7 L24.9999253,25 L13.1425241,25 L13.1425241,21.928738 L21.3843786,21.928738 L21.3843786,10.6155467 L10.071262,10.6155467 L10.071262,18.8574012 L7,18.8574012 L7,7 Z" id="Combined-Shape" fill="#000000" fill-rule="nonzero"></path>
    </g>
</svg>