<?xml version="1.0" encoding="UTF-8"?>
<svg width="32px" height="32px" viewBox="0 0 32 32" version="1.1" xmlns="http://www.w3.org/2000/svg" xmlns:xlink="http://www.w3.org/1999/xlink">
    <!-- Generator: Sketch 52.2 (67145) - http://www.bohemiancoding.com/sketch -->
    <title>svg/black/six</title>
    <desc>Created with Sketch.</desc>
    <g id="black/six" stroke="none" stroke-width="1" fill="none" fill-rule="evenodd">
        <path d="M16,32 C7.163444,32 0,24.836556 0,16 C0,7.163444 7.163444,0 16,0 C24.836556,0 32,7.163444 32,16 C32,24.836556 24.836556,32 16,32 Z M19.7087334,13.4823098 L21.2159079,14.1735671 C21.2985975,14.211646 21.3969217,14.2051142 21.4723847,14.1566123 C21.5367297,14.115337 21.5735579,14.050853 21.5735579,13.9795592 L21.5735579,9.99940936 C21.5735579,9.7267421 21.3983115,9.4768666 21.116055,9.34706475 L16.2051953,7.0902637 C15.9431596,6.9699121 15.6303983,6.9699121 15.368432,7.0902637 L10.4575724,9.34706475 C10.1753854,9.4768666 10,9.72681159 10,9.99940936 L10,22.0004517 C10,22.2731189 10.1753854,22.5230639 10.4575724,22.6528658 L15.3685015,24.9096668 C15.4994846,24.9698426 15.6431839,25 15.7868137,25 C15.9305129,25 16.0742122,24.9698426 16.2051953,24.9096668 L21.116055,22.6528658 C21.3983115,22.5231334 21.5735579,22.2731884 21.5735579,22.0004517 L21.5735579,16.4227941 C21.5735579,16.1501268 21.3983115,15.9001818 21.116055,15.770519 L16.2051953,13.5136484 C15.9431596,13.3932968 15.6305373,13.3932968 15.368432,13.5136484 L13.1760455,14.5212109 C13.0944677,14.5587339 13.0438116,14.6331546 13.0438116,14.7153578 C13.0438811,14.797561 13.0945372,14.8718427 13.176254,14.9092962 L14.8579105,15.6803247 C14.9285789,15.7127057 15.0129362,15.7126362 15.0833961,15.6801858 L15.5558387,15.4631082 C15.6931451,15.3999444 15.8638053,15.3999444 16.0011813,15.4631082 L19.334476,16.9948811 C19.4733807,17.0587397 19.5596141,17.1772847 19.5596141,17.3043765 L19.5596141,21.1189387 C19.5596141,21.2460306 19.4733807,21.3645755 19.334476,21.4284341 L16.0011813,22.9602766 C15.8638053,23.0233708 15.6931451,23.0233708 15.5558387,22.9602766 L12.2225439,21.4284341 C12.0836393,21.3645755 11.9974058,21.2460306 11.9974058,21.1189387 L11.9973363,16.847777 L15.368432,18.3969912 C15.4994846,18.457167 15.6431839,18.4873244 15.7868137,18.4873244 C15.9305129,18.4873244 16.0742817,18.457167 16.2051953,18.3969912 L18.3976513,17.3894287 C18.4792292,17.3519057 18.5299547,17.277624 18.5298157,17.1954208 C18.5298157,17.1132176 18.4790207,17.0388664 18.3973734,17.0013434 L16.7157863,16.2303149 C16.6452569,16.1980729 16.5611776,16.1980034 16.4903008,16.2304539 L16.0178582,16.4475315 C15.8804822,16.5107647 15.709683,16.5106952 15.572585,16.4475315 L12.2392903,14.9157585 C12.1002467,14.8519694 12.0140132,14.7332855 12.0140132,14.6062631 L12.0140132,10.8809918 C12.0140132,10.7539 12.1002467,10.6352855 12.2392903,10.5714964 L15.572585,9.03965395 C15.7097525,8.9765597 15.8804128,8.97649021 16.0178582,9.03965395 L19.3511529,10.5714964 C19.4900576,10.6352855 19.576291,10.7539 19.576291,10.8809918 L19.576291,13.2883019 C19.576291,13.3704356 19.6270861,13.4447867 19.7087334,13.4823098 Z M12.7428631,17.7046915 C12.670944,17.6720326 12.5892272,17.7245648 12.5892272,17.8036411 L12.5892272,21.0255481 C12.5892272,21.0682131 12.6141036,21.106848 12.6528773,21.1244977 L15.7003718,22.5115291 C15.7294868,22.5247316 15.7630491,22.5245231 15.7919557,22.5107647 L18.8413263,21.0643219 C18.8792662,21.0462552 18.9035172,21.0080373 18.9035172,20.9661366 L18.9035172,17.8019039 C18.9035172,17.7233141 18.8225648,17.6706429 18.7507151,17.7025374 L15.7504719,19.0317556 C15.7220517,19.0443328 15.6897402,19.0441938 15.661459,19.0313387 L12.7428631,17.7046915 Z" id="Combined-Shape" fill="#000000" fill-rule="nonzero"></path>
    </g>
</svg>