<?xml version="1.0" encoding="UTF-8"?>
<svg width="32px" height="32px" viewBox="0 0 32 32" version="1.1" xmlns="http://www.w3.org/2000/svg" xmlns:xlink="http://www.w3.org/1999/xlink">
    <!-- Generator: Sketch 52.6 (67491) - http://www.bohemiancoding.com/sketch -->
    <title>svg/black/xlm</title>
    <desc>Created with Sketch.</desc>
    <g id="black/xlm" stroke="none" stroke-width="1" fill="none" fill-rule="evenodd">
        <path d="M16,32 C7.163444,32 0,24.836556 0,16 C0,7.163444 7.163444,0 16,0 C24.836556,0 32,7.163444 32,16 C32,24.836556 24.836556,32 16,32 Z M23.3538177,11.1509887 C23.3538177,9.04545458 22.6344286,7.01002955 22.6344286,7.01002955 C22.6344286,7.01002955 19.9497235,6.82581331 17.7037657,8.0363772 C15.4576022,9.24694109 14.60663,10.7912941 14.1854615,11.5019453 C13.764293,12.2125965 12.8870043,13.7304273 12.8870043,13.7304273 C12.8870043,13.7304273 10.9656864,13.6954756 9.44775279,14.5377098 C7.93002476,15.3798412 7,16.959146 7,16.959146 C7,16.959146 8.00897458,16.6696633 8.97405388,16.6960827 C9.93913318,16.7225021 10.9042125,17.1257835 10.9042125,17.1257835 C10.9042125,17.1257835 10.676101,17.4678994 10.7199962,17.9679149 C10.7393225,18.1876997 11.0329171,18.500415 11.4371238,18.8407833 C11.3742106,18.9232283 11.3119143,19.0070097 11.2509543,19.0930527 C9.80991453,21.1290945 9.48075135,23.3730992 10.5158369,24.1058522 C11.5510253,24.8383996 13.5582834,23.7820346 14.9992204,21.7464039 C15.0451716,21.6814348 15.0899921,21.6160545 15.133579,21.550777 C15.5005723,21.7819725 15.8150351,21.9347322 16.0104565,21.9248634 C16.5281535,21.898444 16.9755358,21.3545332 16.9755358,21.3545332 C16.9755358,21.3545332 17.9627169,22.6047776 18.2126219,23.2365818 C18.4627325,23.8682831 18.5548406,25 18.5548406,25 C18.5548406,25 19.6602409,23.6971224 20.0093471,21.7725149 C20.3584533,19.8479075 19.5022384,18.4856119 19.5022384,18.4856119 C19.5022384,18.4856119 20.4761585,17.2926267 21.4762923,16.0818572 C22.4765289,14.8709849 23.3538177,13.2566256 23.3538177,11.1509887 Z M14.6589549,21.2739386 C13.7045667,22.5660223 12.3437103,23.1794254 11.6189756,22.6442525 C10.8943437,22.1089769 11.0808216,20.6277426 12.0352098,19.3355561 C12.0390133,19.3303133 12.0430225,19.3253789 12.0469289,19.3201362 C12.432426,19.6082825 12.8416698,19.894784 13.1853277,20.1438665 C13.6379528,20.4721045 14.1792936,20.8944038 14.6786923,21.245566 C14.6718048,21.2550236 14.6659452,21.2644811 14.6589549,21.2739386 Z M18.3091504,14.6516113 C17.1219219,14.6516113 16.1595154,13.6892048 16.1595154,12.5020791 C16.1595154,11.3148507 17.1219219,10.352547 18.3091504,10.352547 C19.4962761,10.352547 20.4585798,11.3148507 20.4585798,12.5020791 C20.4585798,13.6892048 19.4962761,14.6516113 18.3091504,14.6516113 Z" id="Combined-Shape" fill="#000000" fill-rule="nonzero"></path>
    </g>
</svg>