<?xml version="1.0" encoding="UTF-8"?>
<svg width="32px" height="32px" viewBox="0 0 32 32" version="1.1" xmlns="http://www.w3.org/2000/svg" xmlns:xlink="http://www.w3.org/1999/xlink">
    <!-- Generator: Sketch 53 (72520) - https://sketchapp.com -->
    <title>svg/icon/btt</title>
    <desc>Created with Sketch.</desc>
    <defs>
        <linearGradient x1="50%" y1="0%" x2="50%" y2="100%" id="linearGradient-1">
            <stop stop-color="#FFFFFF" stop-opacity="0.5" offset="0%"></stop>
            <stop stop-color="#000000" stop-opacity="0.5" offset="100%"></stop>
        </linearGradient>
        <circle id="path-2" cx="16" cy="15" r="15"></circle>
        <filter x="-5.8%" y="-4.2%" width="111.7%" height="111.7%" filterUnits="objectBoundingBox" id="filter-3">
            <feOffset dx="0" dy="0.5" in="SourceAlpha" result="shadowOffsetOuter1"></feOffset>
            <feGaussianBlur stdDeviation="0.5" in="shadowOffsetOuter1" result="shadowBlurOuter1"></feGaussianBlur>
            <feComposite in="shadowBlurOuter1" in2="SourceAlpha" operator="out" result="shadowBlurOuter1"></feComposite>
            <feColorMatrix values="0 0 0 0 0   0 0 0 0 0   0 0 0 0 0  0 0 0 0.199473505 0" type="matrix" in="shadowBlurOuter1"></feColorMatrix>
        </filter>
    </defs>
    <g id="icon/btt" stroke="none" stroke-width="1" fill="none" fill-rule="evenodd">
        <g id="Oval" fill-rule="nonzero">
            <use fill="black" fill-opacity="1" filter="url(#filter-3)" xlink:href="#path-2"></use>
            <use fill="#7665AC" xlink:href="#path-2"></use>
            <use fill="url(#linearGradient-1)" style="mix-blend-mode: soft-light;" xlink:href="#path-2"></use>
            <circle stroke-opacity="0.0970052083" stroke="#000000" stroke-width="1" stroke-linejoin="square" cx="16" cy="15" r="14.5"></circle>
        </g>
        <path d="M27.7561957,12.5841324 C27.9179517,13.3746792 27.9998768,14.1874012 28,15.0001232 C28,15.812722 27.9179517,16.6255672 27.7561957,17.4159908 C27.5982588,18.1875654 27.3627087,18.9465741 27.0559514,19.6718272 C26.7549843,20.3832823 26.3826869,21.0694824 25.9491612,21.7110856 C25.5201938,22.345913 25.0276574,22.9429193 24.4852268,23.48535 C23.9427961,24.0277806 23.345913,24.520317 22.7109624,24.9492844 C22.0693592,25.3826869 21.3832823,25.7551075 20.671704,26.0560746 C19.9464509,26.3628319 19.1874423,26.598382 18.4158676,26.7563189 C17.625444,26.9180749 16.8125988,27.0001232 16,27.0001232 C15.1874012,27.0001232 14.374556,26.9180749 13.5841324,26.7563189 C12.8125577,26.598382 12.0535491,26.3628319 11.328296,26.0560746 C10.6168409,25.7551075 9.93064082,25.3828101 9.28903764,24.9492844 C8.65421021,24.520317 8.05720387,24.0277806 7.51477322,23.48535 C6.97234257,22.9429193 6.47980617,22.3460362 6.05083876,21.7110856 C5.6174363,21.0694824 5.24501571,20.3834055 4.94404862,19.6718272 C4.63729134,18.9465741 4.40174117,18.1875654 4.24380428,17.4159908 C4.08204833,16.6255672 4,15.812722 4,15.0001232 C4,14.1874012 4.08192514,13.3746792 4.24380428,12.5841324 C4.40174117,11.8125577 4.63729134,11.0535491 4.94404862,10.328296 C5.24501571,9.61684085 5.6173131,8.93064082 6.05083876,8.28903764 C6.47980617,7.65421021 6.97234257,7.05720387 7.51477322,6.51477322 C8.05720387,5.97234257 8.65408702,5.47980617 9.28903764,5.05083876 C9.93064082,4.6174363 10.6167177,4.24501571 11.328296,3.94404862 C12.0535491,3.63729134 12.8124346,3.40174117 13.5841324,3.24380428 C14.374556,3.08204833 15.1874012,3 16,3 C16.8125988,3 17.625444,3.08204833 18.4158676,3.24380428 C19.1874423,3.40174117 19.9464509,3.63729134 20.671704,3.94404862 C21.3831591,4.24501571 22.0693592,4.6173131 22.7109624,5.05083876 C23.3457898,5.47980617 23.9427961,5.97234257 24.4852268,6.51477322 C25.0276574,7.05720387 25.5201938,7.65408702 25.9491612,8.28903764 C26.3825637,8.93064082 26.7549843,9.61671766 27.0559514,10.328296 C27.3627087,11.0535491 27.5982588,11.8125577 27.7561957,12.5841324 Z M15.9998768,25.5000924 C21.7989446,25.5000924 26.4999692,20.7990678 26.499846,15.0001232 C26.499846,9.20117857 21.7988214,4.50015399 15.9998768,4.50015399 C10.2009322,4.50015399 5.4999076,9.20117857 5.4999076,15.0001232 C5.4999076,20.7990678 10.2009322,25.5000924 15.9998768,25.5000924 Z M16.1863951,24.5980535 C16.171858,24.5984231 16.1573209,24.5986695 16.1426606,24.5989159 C16.0952303,24.5995319 16.0475535,24.6000246 15.9998768,24.6000246 C13.7669548,24.6000246 11.7121738,23.8376897 10.0814324,22.5590415 C10.0808164,22.5584256 10.0800772,22.5576864 10.079338,22.5570704 C9.26193458,21.7958442 8.70459725,20.7983286 8.39340492,20.1246946 C8.13235324,19.5594727 7.9273556,18.9640679 7.78765168,18.3533869 C7.64930292,17.7492352 7.57292159,17.1270969 7.56060202,16.5044658 C7.55998604,16.4691087 7.55949326,16.4337515 7.55924686,16.3985175 C7.55986284,16.3286656 7.56134119,16.2588136 7.56355871,16.1890849 C7.56947211,16.0067552 7.58068291,15.8247952 7.59756073,15.6438207 C7.65164364,15.0614747 7.76325894,14.4834404 7.92920354,13.9258567 C8.09847443,13.356939 8.32614007,12.8036671 8.6057943,12.2814406 C8.89247069,11.7460321 9.23717225,11.2371107 9.63016652,10.768967 C10.0512494,10.2671909 10.5272776,9.8129684 11.0449459,9.41861898 C11.5490627,9.03461799 12.0970371,8.70420713 12.6734698,8.43650288 C13.2381989,8.17434244 13.8340965,7.97045357 14.4447775,7.83074965 C15.0489292,7.69240088 15.6710675,7.61601955 16.2936985,7.60369998 C16.3990309,7.60160565 16.5041168,7.60135926 16.6090795,7.60283761 L16.6090795,9.23518058 C16.5147116,9.23345584 16.4203437,9.23345584 16.326099,9.23530378 C14.2800649,9.27583516 12.2799828,10.1505246 10.8801101,11.8181016 C9.76223231,13.1497238 9.20871404,14.7711024 9.19122025,16.4001191 C9.16793627,18.5762479 10.1013901,20.7659282 11.9248096,22.2966347 C13.0175554,23.2139499 14.3130813,23.7452929 15.6702051,24.0354188 C16.2800238,24.1657598 17.2402111,24.3310884 18.4198099,24.2922818 C18.3253188,24.3167977 18.2302117,24.3399585 18.1346118,24.361641 C18.1288216,24.3628729 18.1231546,24.3642281 18.1173644,24.36546 C18.0759707,24.3748229 18.0345769,24.3838162 17.99306,24.3925631 C17.986161,24.3940414 17.9791389,24.3955198 17.9722399,24.3969981 C17.8767632,24.4169558 17.7807938,24.4354352 17.6843316,24.4525594 C17.6842084,24.4526826 17.6840852,24.4526826 17.683962,24.4526826 C17.6381332,24.4608135 17.592058,24.4684516 17.5459828,24.4759666 C17.5367431,24.4774449 17.5276266,24.4789233 17.518387,24.4804016 C17.4797035,24.4865614 17.4410201,24.4924748 17.4022134,24.4981418 C17.3926042,24.499497 17.3828717,24.5009753 17.3732624,24.5023305 C17.3278032,24.5088598 17.2822208,24.5150196 17.2366384,24.520933 C17.2354064,24.5210562 17.2340513,24.5213026 17.2326961,24.5214258 C17.184157,24.5275856 17.1356179,24.5333758 17.0869556,24.5389196 C17.0793175,24.5397819 17.0716794,24.5405211 17.0640412,24.5413835 C17.0249882,24.5456953 16.985812,24.5497608 16.9465125,24.5535799 C16.9333306,24.554935 16.9201487,24.556167 16.9069667,24.5573989 C16.8716096,24.5607252 16.8362524,24.5638051 16.800772,24.5667618 C16.7879597,24.5678706 16.7751473,24.5689793 16.762335,24.5699649 C16.7181077,24.5735376 16.6737573,24.5767407 16.6292836,24.5795742 C16.6264501,24.5798205 16.6234934,24.5800669 16.6206599,24.5801901 C16.5732296,24.58327 16.5255528,24.5858571 16.4778761,24.5881979 C16.4650638,24.5888138 16.4521282,24.5893066 16.4393159,24.5899226 C16.4045747,24.5915241 16.3698335,24.5928793 16.3350923,24.5941112 C16.3192,24.594604 16.3033078,24.5950968 16.2874156,24.5955896 C16.2537831,24.5965752 16.2201507,24.5974375 16.1863951,24.5980535 Z M18.8702133,23.0126481 C19.8311398,23.0296491 20.1792908,23.038396 21.5061085,22.8013675 C21.4719832,22.8266226 21.4374885,22.8515081 21.4029937,22.8762705 C21.0130793,23.130916 20.9723015,23.1525984 20.739092,23.2907008 C20.5121656,23.4182083 20.2793257,23.5367226 20.0413116,23.6459972 C19.7686795,23.7626635 19.555551,23.8415087 19.0498327,24.0287662 C18.4663778,24.0312301 17.4827834,24.0099173 16.7468123,23.9081576 C15.6050346,23.7503439 14.5126584,23.4987783 13.6225695,23.0311274 C12.7674681,22.5818327 12.0636511,22.0854773 11.4608546,21.4321705 C10.7901772,20.7054391 10.2943145,19.8817527 9.98669486,18.9841488 C9.67907521,18.0861754 9.55501714,17.1558015 9.61821654,16.2188982 C9.64852268,15.7678788 9.72330247,15.3177217 9.84021518,14.880993 C9.95614233,14.4479601 10.114572,14.0242901 10.3110691,13.6216865 C10.5080591,13.2182206 10.7449644,12.8323717 11.0152557,12.474981 C11.2889966,12.1130321 11.5994497,11.7769542 11.9378683,11.4761103 C12.6437796,10.8486746 13.4603207,10.3780671 14.3647003,10.0773464 C15.0722132,9.84204258 15.8075683,9.72118761 16.550192,9.71786132 C17.2885038,9.71465823 18.0216414,9.8273823 18.7294007,10.0529536 C18.9428988,10.1209576 19.1527011,10.1989405 19.3583147,10.2864095 L18.6708827,11.7502207 C18.0069811,11.4735232 17.2889966,11.3264275 16.5572141,11.3296306 C16.0027103,11.3319713 15.4404451,11.4206722 14.8879124,11.604357 C12.060448,12.5443402 10.560294,15.61758 11.5372359,18.4685748 C12.3403486,20.812373 14.5207893,22.3555222 17.058251,22.8166437 C17.6072111,22.9164323 18.2980925,23.002546 18.8702133,23.0126481 Z M21.9037842,21.1792497 C22.3870809,21.1462333 23.0931154,21.0724391 23.4687391,21.0319077 C23.0300392,21.5744615 22.5333142,22.0682299 21.9881732,22.5038499 C21.4222122,22.6180523 21.0856415,22.6659754 20.6407819,22.6967743 C19.0420713,22.8072809 17.3841036,22.6785414 16.2645012,22.3053816 C15.0942652,21.915344 14.0058313,21.2249553 13.1995154,20.3613535 C12.7438145,19.8733754 12.3844527,19.3390756 12.1312855,18.7734842 C11.8441164,18.1317578 11.6984991,17.4618196 11.6984991,16.7821489 C11.6984991,16.1069133 11.8310576,15.4510194 12.0926021,14.8327002 C12.3449069,14.2361867 12.7057471,13.7009014 13.1650206,13.2416278 C13.6244174,12.7822311 14.1597027,12.4215141 14.7560931,12.1692093 C15.3744123,11.9076648 16.0303061,11.7751063 16.7055418,11.7751063 C17.3807774,11.7751063 18.0366713,11.9076648 18.6549905,12.1692093 C19.251504,12.4215141 19.7867893,12.7823543 20.2460629,13.2416278 C20.5950763,13.5906412 20.8870501,13.9836355 21.1179188,14.4138349 L19.6529988,15.1369936 C19.0757038,14.1049833 17.9722399,13.4070796 16.7056649,13.4070796 C14.8417141,13.4070796 13.3307188,14.9180749 13.3307188,16.7820257 C13.3307188,18.6459766 15.0123401,20.1675667 16.7806911,20.7570581 C17.9308461,21.1404431 19.2729401,21.2356734 20.3667947,21.2356734 C20.9848675,21.2356734 21.523479,21.205244 21.9037842,21.1792497 Z" id="Combined-Shape" fill="#FFFFFF" fill-rule="nonzero"></path>
    </g>
</svg>