<?xml version="1.0" encoding="UTF-8"?>
<svg width="32px" height="32px" viewBox="0 0 32 32" version="1.1" xmlns="http://www.w3.org/2000/svg" xmlns:xlink="http://www.w3.org/1999/xlink">
    <!-- Generator: Sketch 51.1 (57501) - http://www.bohemiancoding.com/sketch -->
    <title>svg/icon/dax</title>
    <desc>Created with Sketch.</desc>
    <defs>
        <linearGradient x1="50%" y1="0%" x2="50%" y2="100%" id="linearGradient-1">
            <stop stop-color="#FFFFFF" stop-opacity="0.5" offset="0%"></stop>
            <stop stop-color="#000000" stop-opacity="0.5" offset="100%"></stop>
        </linearGradient>
        <circle id="path-2" cx="16" cy="15" r="15"></circle>
        <filter x="-5.8%" y="-4.2%" width="111.7%" height="111.7%" filterUnits="objectBoundingBox" id="filter-3">
            <feOffset dx="0" dy="0.5" in="SourceAlpha" result="shadowOffsetOuter1"></feOffset>
            <feGaussianBlur stdDeviation="0.5" in="shadowOffsetOuter1" result="shadowBlurOuter1"></feGaussianBlur>
            <feComposite in="shadowBlurOuter1" in2="SourceAlpha" operator="out" result="shadowBlurOuter1"></feComposite>
            <feColorMatrix values="0 0 0 0 0   0 0 0 0 0   0 0 0 0 0  0 0 0 0.199473505 0" type="matrix" in="shadowBlurOuter1"></feColorMatrix>
        </filter>
        <path d="M17.294604,13.5694497 L17.294604,16.4305503 C17.294604,20.0587919 14.353396,23 10.7251544,23 L8,23 L8,19.2514899 L10.7401879,19.2514899 C12.4885906,19.2514899 13.9060403,17.8340403 13.9060403,16.0856376 L13.9060403,13.9143624 C13.9060403,12.1659597 12.4885906,10.7485101 10.7401879,10.7485101 L8,10.7485101 L8,7 L10.7251544,7 C14.353396,7 17.294604,9.94120805 17.294604,13.5694497 Z M18.0497181,18.2004295 C18.6291544,18.8442953 19.4665235,19.2514899 20.4007517,19.2514899 L23.1409396,19.2514899 L23.1409396,23 L20.4157852,23 C18.8452081,23 17.4039195,22.4482685 16.2736107,21.5286443 C17.123651,20.6047248 17.7451812,19.4636779 18.0497181,18.2004295 Z M20.4157852,7 L23.1409396,7 L23.1409396,10.7485101 L20.4007517,10.7485101 C19.4665235,10.7485101 18.6291544,11.1557047 18.0497181,11.7993557 C17.7451812,10.5363221 17.123651,9.39527517 16.2736107,8.47114094 C17.4039195,7.55173154 18.8452081,7 20.4157852,7 Z" id="path-4"></path>
        <filter x="-11.6%" y="-7.8%" width="123.1%" height="121.9%" filterUnits="objectBoundingBox" id="filter-5">
            <feOffset dx="0" dy="0.5" in="SourceAlpha" result="shadowOffsetOuter1"></feOffset>
            <feGaussianBlur stdDeviation="0.5" in="shadowOffsetOuter1" result="shadowBlurOuter1"></feGaussianBlur>
            <feColorMatrix values="0 0 0 0 0   0 0 0 0 0   0 0 0 0 0  0 0 0 0.2 0" type="matrix" in="shadowBlurOuter1"></feColorMatrix>
        </filter>
    </defs>
    <g id="icon/dax" stroke="none" stroke-width="1" fill="none" fill-rule="evenodd">
        <g id="Oval" fill-rule="nonzero">
            <use fill="black" fill-opacity="1" filter="url(#filter-3)" xlink:href="#path-2"></use>
            <use fill="#574579" xlink:href="#path-2"></use>
            <use fill="url(#linearGradient-1)" style="mix-blend-mode: soft-light;" xlink:href="#path-2"></use>
            <circle stroke-opacity="0.0970052083" stroke="#000000" stroke-width="1" stroke-linejoin="square" cx="16" cy="15" r="14.5"></circle>
        </g>
        <g id="Combined-Shape">
            <use fill="black" fill-opacity="1" filter="url(#filter-5)" xlink:href="#path-4"></use>
            <use fill="#FFFFFF" fill-rule="evenodd" xlink:href="#path-4"></use>
        </g>
    </g>
</svg>