<?xml version="1.0" encoding="UTF-8"?>
<svg width="32px" height="32px" viewBox="0 0 32 32" version="1.1" xmlns="http://www.w3.org/2000/svg" xmlns:xlink="http://www.w3.org/1999/xlink">
    <!-- Generator: Sketch 52.2 (67145) - http://www.bohemiancoding.com/sketch -->
    <title>svg/icon/default</title>
    <desc>Created with Sketch.</desc>
    <defs>
        <linearGradient x1="50%" y1="0%" x2="50%" y2="100%" id="linearGradient-1">
            <stop stop-color="#FFFFFF" stop-opacity="0.5" offset="0%"></stop>
            <stop stop-color="#000000" stop-opacity="0.5" offset="100%"></stop>
        </linearGradient>
        <circle id="path-2" cx="16" cy="15" r="15"></circle>
        <filter x="-5.8%" y="-4.2%" width="111.7%" height="111.7%" filterUnits="objectBoundingBox" id="filter-3">
            <feOffset dx="0" dy="0.5" in="SourceAlpha" result="shadowOffsetOuter1"></feOffset>
            <feGaussianBlur stdDeviation="0.5" in="shadowOffsetOuter1" result="shadowBlurOuter1"></feGaussianBlur>
            <feComposite in="shadowBlurOuter1" in2="SourceAlpha" operator="out" result="shadowBlurOuter1"></feComposite>
            <feColorMatrix values="0 0 0 0 0   0 0 0 0 0   0 0 0 0 0  0 0 0 0.199473505 0" type="matrix" in="shadowBlurOuter1"></feColorMatrix>
        </filter>
        <path d="M16.9483167,4 C22.2825984,4 26.6225699,8.93409199 26.6225699,15 C26.6225699,21.065908 22.2825984,26 16.9483167,26 C16.5614035,26 16.179706,25.9724988 15.8055951,25.9203414 C15.4129919,25.9743954 15.0407776,26 14.6718824,26 C12.6235183,26 10.7230915,25.2702703 9.1583689,24.0293978 C9.13418682,24.0128023 9.11190138,23.9981034 9.0934092,23.9777146 C8.42674253,23.4404931 7.82266477,22.8089142 7.29492651,22.1014699 C7.27833096,22.086771 7.26695116,22.0678046 7.25414889,22.0493125 C6.733523,21.3418682 6.28923661,20.5604552 5.9374111,19.7174016 C5.92982456,19.7045993 5.92413466,19.6899004 5.91891892,19.6752015 C5.3314367,18.2541489 5,16.6709341 5,15 C5,13.9331437 5.13703177,12.9013751 5.38691323,11.9236605 C5.39260313,11.8828829 5.40018966,11.8421053 5.41678521,11.8070175 C5.59080133,11.1607397 5.81507824,10.5400664 6.08534851,9.94926505 C6.09293504,9.92887624 6.10004742,9.91038407 6.11142722,9.89189189 C6.50213371,9.04741584 6.98577525,8.26552869 7.54860123,7.56709341 C7.56330014,7.54860123 7.57657658,7.53010906 7.59506875,7.51351351 C9.36178284,5.35372214 11.8809862,4 14.6718824,4 C15.0407776,4 15.4129919,4.02797534 15.8055951,4.07965861 C16.179706,4.02939782 16.5614035,4 16.9483167,4 Z M12.9440493,4.99099099 C12.9829303,4.97060218 13.0218113,4.9464201 13.0625889,4.92603129 C12.4585111,5.05405405 11.8790896,5.25746799 11.3252726,5.51683262 L12.0550024,5.51683262 C12.1588431,5.44855382 12.2603129,5.37980085 12.3660503,5.31484116 C12.4329066,5.27406354 12.503082,5.23518255 12.571835,5.19630156 C12.6941679,5.12422949 12.8179232,5.05737316 12.9440493,4.99099099 Z M9.11948791,21.4495021 C9.04883831,21.3380749 8.97866287,21.2271219 8.91180654,21.1142722 C8.88051209,21.0587956 8.85064011,21.002845 8.81934566,20.9492651 C8.73399716,20.8013276 8.65433855,20.6510194 8.57657658,20.4992888 C8.5467046,20.4419156 8.51920341,20.3864391 8.49122807,20.3304884 C8.42674253,20.1991465 8.3655761,20.065908 8.30630631,19.9326695 L6.86865813,19.9326695 C7.12802276,20.4675202 7.42437174,20.9772404 7.75960171,21.4495021 L9.11948791,21.4495021 Z M6.69464201,10.4495021 C6.5353248,10.8160266 6.39449976,11.1958274 6.2745377,11.5865339 L7.75438596,11.5865339 C7.80227596,11.4196302 7.85443338,11.2550972 7.90801328,11.0919867 C7.92460882,11.0455192 7.94120436,10.9995258 7.95779991,10.9511617 C8.0170697,10.7828355 8.08013276,10.6140351 8.14698909,10.4495021 L6.69464201,10.4495021 Z M5.75960171,15 C5.75960171,15.1280228 5.76861072,15.2536747 5.77430062,15.3798009 L7.2835467,15.3798009 C7.2802276,15.2536747 7.27643433,15.1280228 7.27643433,15 C7.27643433,14.7520152 7.28544334,14.5054528 7.30061641,14.2593646 C7.30061641,14.2536747 7.30061641,14.2479848 7.30061641,14.2427691 L5.78899953,14.2427691 C5.77240398,14.4926505 5.75960171,14.7444286 5.75960171,15 Z M7.32811759,16.1394026 L5.8188715,16.1394026 C5.85775249,16.5244192 5.91512565,16.90422 5.98909436,17.2764343 L7.48553817,17.2764343 C7.44665718,17.068753 7.4134661,16.8596491 7.38549075,16.6486486 C7.38359412,16.6372688 7.38169749,16.6263632 7.38169749,16.6149834 C7.3598862,16.4561404 7.34139403,16.2982456 7.32811759,16.1394026 Z M7.56330014,12.3461356 L6.0649597,12.3461356 C5.97771456,12.7164533 5.91512565,13.0976766 5.86486486,13.4831674 L7.37079184,13.4831674 C7.37458511,13.4518729 7.37648174,13.4182077 7.38169749,13.3869132 C7.38359412,13.374111 7.38359412,13.3627312 7.38549075,13.3518255 C7.41725936,13.1071598 7.45803698,12.868184 7.50403035,12.6292082 C7.51541015,12.5794215 7.52441916,12.5310574 7.53579896,12.4812707 C7.54480797,12.4348032 7.5523945,12.3902323 7.56330014,12.3461356 Z M7.65433855,18.036036 L6.16690375,18.036036 C6.27264106,18.4248459 6.39449976,18.8046468 6.53911807,19.1730678 L8.00047416,19.1730678 C7.98577525,19.1322902 7.97297297,19.0896159 7.95779991,19.0488383 C7.94120436,19.0009483 7.92460882,18.9544808 7.90990991,18.9080133 C7.83404457,18.6842105 7.76339497,18.4561404 7.70033191,18.2247511 C7.6970128,18.2081555 7.69321954,18.19156 7.68752963,18.1749644 C7.67662399,18.1284969 7.66524419,18.0820294 7.65433855,18.036036 Z M8.91180654,8.88809862 C9.01564723,8.71171171 9.12280702,8.53959222 9.23423423,8.37316264 C9.2802276,8.30440967 9.32669512,8.23944998 9.37316264,8.1730678 L8.04504505,8.1730678 C7.67662399,8.64153627 7.34660977,9.14888573 7.05974395,9.68990043 L8.48221906,9.68990043 C8.48411569,9.68421053 8.4874348,9.67709815 8.49122807,9.67140825 C8.51920341,9.61403509 8.5467046,9.55855856 8.57657658,9.50260787 C8.65433855,9.35087719 8.73399716,9.20104315 8.81934566,9.05263158 C8.84874348,8.99715505 8.88051209,8.94167852 8.91180654,8.88809862 Z M10.0194405,6.27643433 C9.54907539,6.60787103 9.11000474,6.98956852 8.7027027,7.4134661 L9.9544808,7.4134661 C10.0137506,7.34329066 10.0711238,7.27264106 10.1322902,7.20436226 C10.2010431,7.12849692 10.269322,7.05215742 10.3399716,6.97818872 C10.4139403,6.90042674 10.487909,6.8245614 10.5618777,6.74869606 C10.6382172,6.67472736 10.7102892,6.59838786 10.7880512,6.52631579 C10.8786155,6.44096728 10.9734471,6.35798957 11.0678046,6.27643433 L10.0194405,6.27643433 Z M8.34708393,22.206733 C8.70602181,22.6235183 9.09530583,23.0052157 9.51209104,23.3461356 L10.6529161,23.3461356 C10.6230441,23.3162636 10.5936463,23.2830725 10.5637743,23.2532006 C10.487909,23.1773352 10.4139403,23.0995733 10.3399716,23.0218113 C10.269322,22.9478426 10.1991465,22.8738739 10.1322902,22.7961119 C10.0099573,22.6590801 9.89331437,22.5201517 9.77856804,22.3755334 C9.73399716,22.3200569 9.69179706,22.2645804 9.64912281,22.206733 L8.34708393,22.206733 Z M13.0625889,25.0739687 C13.0218113,25.0535799 12.9829303,25.029872 12.9421527,25.0094832 C12.8179232,24.9445235 12.6941679,24.8757705 12.5699384,24.8055951 C12.5011854,24.7648174 12.4329066,24.7259365 12.3660503,24.6851588 C12.2105263,24.5908013 12.0587956,24.4907539 11.9103841,24.3869132 C11.8288288,24.3314367 11.7510669,24.2721669 11.6733049,24.2128971 C11.6235183,24.1778094 11.5732575,24.1422475 11.5253675,24.1033665 L10.6083452,24.1033665 C11.3698435,24.5557136 12.1920341,24.8909436 13.0625889,25.0739687 Z M16.9483167,25.2427691 C21.8639165,25.2427691 25.8629682,20.6472262 25.8629682,15 C25.8629682,9.35277383 21.8639165,4.75960171 16.9483167,4.75960171 C16.6462779,4.75960171 16.350403,4.77619725 16.0554765,4.80938834 L15.9094358,4.82977715 C15.8890469,4.83357041 15.8686581,4.83546705 15.8482693,4.83926031 C15.7169275,4.85775249 15.5870081,4.87956377 15.4575628,4.90374585 C15.446183,4.90564248 15.437174,4.90943575 15.4257942,4.91133239 C15.3001422,4.93551446 15.1759128,4.96301565 15.0516833,4.99478426 C15.0331911,4.99810337 15.0146989,5.00379327 14.9962067,5.00948317 C14.8814604,5.03698435 14.7667141,5.06875296 14.6533902,5.10384068 C14.6201991,5.11522048 14.5851114,5.12612613 14.5500237,5.13703177 C14.4537696,5.16880038 14.3570413,5.20009483 14.2626837,5.23376008 C14.1849218,5.26315789 14.1090564,5.29302987 14.0331911,5.32432432 C13.9810337,5.34471313 13.9274538,5.36320531 13.8776671,5.38549075 C11.8364154,6.24845899 10.1455666,7.94499763 9.11569464,10.1142722 C9.10621147,10.1341868 9.0990991,10.1545756 9.08961593,10.1749644 C9.0341394,10.2920816 8.98055951,10.4120436 8.93029872,10.5324798 C8.90801328,10.580844 8.8895211,10.628734 8.87102892,10.6770982 C8.83214794,10.7714557 8.79516358,10.8658132 8.75817923,10.9625415 C8.73589379,11.0232338 8.71360835,11.0844002 8.6913229,11.1474633 C8.66192508,11.2328118 8.63205311,11.3162636 8.60455192,11.401138 C8.58226648,11.4717876 8.55998103,11.541963 8.53769559,11.6126126 C8.51351351,11.6922712 8.48933144,11.7738265 8.46704599,11.8530109 C8.44523471,11.9293504 8.42674253,12.0033191 8.40635372,12.0772878 C8.38596491,12.1569464 8.3655761,12.236605 8.34708393,12.3181603 C8.32859175,12.3940256 8.31152205,12.4698909 8.29492651,12.5476529 C8.27833096,12.6292082 8.26173542,12.7107634 8.24513988,12.7923186 C8.22996681,12.8700806 8.2152679,12.9478426 8.20246562,13.0256046 C8.18776671,13.1090564 8.17638691,13.1944049 8.16358464,13.2773826 C8.15220484,13.3551446 8.13940256,13.4314841 8.13039355,13.5092461 C8.11901375,13.5998103 8.11000474,13.6922712 8.10052157,13.7833096 C8.09293504,13.8553817 8.08392603,13.9260313 8.07823613,13.9981034 C8.06922712,14.1038407 8.06353722,14.2110005 8.05595069,14.3167378 C8.05263158,14.3760076 8.04883831,14.4352774 8.04504505,14.4964438 C8.03935514,14.6628734 8.03366524,14.8316738 8.03366524,15 C8.03366524,15.170697 8.03935514,15.3371266 8.04504505,15.5040303 C8.04883831,15.5651968 8.05263158,15.6244666 8.05595069,15.6837364 C8.06353722,15.7908962 8.06922712,15.8966335 8.07823613,16.0018966 C8.08392603,16.0744429 8.09293504,16.1446183 8.10052157,16.2171645 C8.11000474,16.3096254 8.11901375,16.4001897 8.13039355,16.4912281 C8.13940256,16.56899 8.15220484,16.6448554 8.16358464,16.7226174 C8.17638691,16.8060692 8.18776671,16.8909436 8.20246562,16.9743954 C8.2152679,17.0540541 8.22996681,17.131816 8.24513988,17.209578 C8.26173542,17.2911332 8.27643433,17.3707918 8.29492651,17.4523471 C8.31152205,17.5301091 8.32859175,17.6059744 8.34708393,17.6837364 C8.3655761,17.763395 8.38596491,17.8430536 8.40635372,17.9227122 C8.42674253,17.997155 8.44523471,18.0730204 8.46704599,18.1469891 C8.48933144,18.2266477 8.51351351,18.3082029 8.53769559,18.3878615 C8.55998103,18.458037 8.58226648,18.5286866 8.60455192,18.598862 C8.63205311,18.6842105 8.66192508,18.7676624 8.6913229,18.8525367 C8.71360835,18.9137032 8.73589379,18.9767662 8.75817923,19.0379327 C8.79326695,19.1341868 8.83214794,19.2285443 8.87102892,19.3229018 C8.8895211,19.371266 8.90801328,19.4196302 8.93029872,19.4675202 C8.98055951,19.5879564 9.0341394,19.7083926 9.08961593,19.8250356 C9.0990991,19.8454244 9.10621147,19.8658132 9.11569464,19.886202 C10.1455666,22.0550024 11.8364154,23.751541 13.8776671,24.6149834 C13.9274538,24.6367947 13.9810337,24.6552869 14.0331911,24.6756757 C14.1090564,24.7074443 14.1849218,24.7368421 14.2626837,24.7667141 C14.3570413,24.7999052 14.4537696,24.8316738 14.5500237,24.8629682 C14.5851114,24.8738739 14.6201991,24.8852537 14.6533902,24.8961593 C14.7667141,24.9317212 14.8814604,24.961119 14.9962067,24.990991 C15.0146989,24.9962067 15.0331911,25.0018966 15.0516833,25.0056899 C15.1759128,25.0369844 15.3001422,25.0649597 15.4257942,25.0891418 C15.437174,25.0905642 15.446183,25.0943575 15.4575628,25.0962541 C15.5870081,25.1204362 15.7169275,25.1427217 15.8482693,25.1612138 C15.8686581,25.1650071 15.8890469,25.1669037 15.9094358,25.1702229 L16.0554765,25.1906117 C16.350403,25.2242769 16.6462779,25.2427691 16.9483167,25.2427691 Z M10.1844476,15 C10.1844476,15.209578 10.0137506,15.3835941 9.80464675,15.3835941 C9.59506875,15.3835941 9.4248459,15.218587 9.4248459,15.0094832 L9.4248459,15 C9.4248459,14.742532 9.43575154,14.4812707 9.45614035,14.227596 C9.47321005,14.0184922 9.65433855,13.8648649 9.86391655,13.8795638 C10.0730204,13.8961593 10.2285443,14.0796586 10.2119488,14.2868658 C10.1934566,14.5220484 10.1844476,14.7610242 10.1844476,15 Z M23.4476055,12.8349929 C23.3883357,12.601707 23.3200569,12.3698435 23.2441916,12.1441441 C23.1754386,11.9478426 23.2811759,11.7311522 23.4793741,11.6623992 C23.6775723,11.5941204 23.8942627,11.7012802 23.9606449,11.8994784 C24.0459934,12.1441441 24.1199621,12.3959222 24.1849218,12.649597 C24.2347084,12.8534851 24.1109531,13.0587956 23.9089616,13.1109531 C23.877193,13.1180654 23.8458985,13.1218587 23.8165007,13.1218587 C23.6458037,13.1218587 23.4921764,13.0071124 23.4476055,12.8349929 Z M21.8880986,20.3176861 C22.0213371,20.1564723 22.2603129,20.1308677 22.4215268,20.2641062 C22.5846373,20.3954481 22.6088193,20.6344239 22.4770033,20.7975344 C22.3105737,21.002845 22.1327643,21.1991465 21.9492651,21.3845424 C21.877193,21.4585111 21.7790422,21.4954955 21.6808914,21.4954955 C21.5846373,21.4954955 21.487909,21.4604078 21.4139403,21.3864391 C21.2660028,21.2380275 21.2641062,20.9995258 21.4120436,20.8492176 C21.5770507,20.6842105 21.7363679,20.5049787 21.8880986,20.3176861 Z M10.4452347,17.1503082 C10.5026079,17.3840683 10.5713608,17.6154576 10.6491228,17.8411569 C10.7159791,18.0393551 10.6102418,18.2541489 10.4120436,18.3229018 C10.371266,18.3357041 10.3304884,18.3432907 10.2897108,18.3432907 C10.1322902,18.3432907 9.98435277,18.2432432 9.93029872,18.0858227 C9.84732101,17.8392603 9.77287814,17.5874822 9.71028924,17.3338075 C9.65813182,17.1299194 9.78236131,16.9246088 9.98624941,16.874348 C10.1877667,16.8226648 10.3954481,16.9468943 10.4452347,17.1503082 Z M20.6880038,7.58416311 C20.8639165,7.69890944 20.9137032,7.93409199 20.7989569,8.11000474 C20.7268848,8.2209578 20.6045519,8.28212423 20.4803224,8.28212423 C20.410147,8.28212423 20.3380749,8.26173542 20.2731152,8.21906117 C20.074917,8.09151257 19.8691323,7.97107634 19.6581318,7.86533902 C19.4727359,7.77098151 19.3968706,7.54338549 19.4912281,7.35609294 C19.5860597,7.17069701 19.8136558,7.09293504 20.0009483,7.18966335 C20.2361309,7.30630631 20.4675202,7.43954481 20.6880038,7.58416311 Z M19.7008061,22.1142722 C19.886202,22.018018 20.1156946,22.0919867 20.2119488,22.2773826 C20.3063063,22.464201 20.2342342,22.6941679 20.0469417,22.7885254 C19.8098625,22.9108582 19.5675676,23.018018 19.3210052,23.1109531 C19.2764343,23.1275486 19.2323376,23.134661 19.1877667,23.134661 C19.0341394,23.134661 18.8895211,23.0422001 18.8321479,22.8904694 C18.7581792,22.6941679 18.8582266,22.4755808 19.0526316,22.4016121 C19.2712186,22.3181603 19.4898056,22.2219061 19.7008061,22.1142722 Z M22.916074,9.79563774 C23.0327169,9.96775723 22.9886202,10.2048364 22.8141299,10.3214794 C22.7496444,10.3660503 22.6752015,10.3864391 22.6012328,10.3864391 C22.4789,10.3864391 22.3603604,10.3290659 22.2863917,10.2195353 C22.1531532,10.0213371 22.0085349,9.82882883 21.8587008,9.64722617 C21.7249881,9.48411569 21.7491702,9.24513988 21.9103841,9.11190138 C22.0715979,8.97866287 22.3105737,9.00284495 22.4438122,9.1640588 C22.6088193,9.36367947 22.7681366,9.57705073 22.916074,9.79563774 Z M24.0924609,14.6092935 C24.3015647,14.6092935 24.4717876,14.7667141 24.4717876,14.9758179 L24.4717876,15 C24.4717876,15.2517781 24.4627786,15.505927 24.4423898,15.7558084 C24.4276908,15.9559033 24.2607871,16.1057373 24.0644855,16.1057373 C24.0554765,16.1057373 24.0459934,16.1057373 24.0350877,16.1057373 C23.8255097,16.0891418 23.6699858,15.9056425 23.6865813,15.6984353 C23.7031769,15.4684685 23.71266,15.2332859 23.71266,15 C23.71266,14.7908962 23.8828829,14.6092935 24.0924609,14.6092935 Z M23.7387387,17.5727833 C23.9383594,17.6396396 24.0440967,17.8544334 23.9772404,18.0526316 C23.8942627,18.3006164 23.799431,18.5471788 23.6960645,18.7861546 C23.6330014,18.9284021 23.494073,19.0137506 23.3475581,19.0137506 C23.2977715,19.0137506 23.245614,19.002845 23.1958274,18.9824561 C23.0052157,18.8990043 22.916074,18.6747274 22.9995258,18.4822191 C23.09578,18.2655287 23.1811285,18.0393551 23.2588905,17.8117591 C23.3252726,17.6135609 23.5405405,17.505927 23.7387387,17.5727833 Z M17.7264106,6.50213371 C17.9336178,6.52631579 18.083926,6.71360835 18.059744,6.92271219 C18.0374585,7.11522048 17.8724514,7.25794215 17.6837364,7.25794215 C17.6690375,7.25794215 17.6543385,7.25604552 17.6391655,7.25414889 C17.4096728,7.22854433 17.1782835,7.2152679 16.9483167,7.2152679 C16.7392129,7.2152679 16.5614035,7.04504505 16.5614035,6.83546705 C16.5614035,6.62636321 16.724514,6.45614035 16.9336178,6.45614035 L16.9483167,6.45614035 C17.2076814,6.45614035 17.4689426,6.47083926 17.7264106,6.50213371 Z M11.6012328,19.7676624 C11.7344713,19.9658606 11.8790896,20.1602655 12.0289237,20.3418682 C12.1621622,20.5049787 12.1384542,20.7434803 11.9772404,20.877193 C11.9065908,20.9345661 11.8217165,20.9620673 11.7363679,20.9620673 C11.6273115,20.9620673 11.5177809,20.9141773 11.4419156,20.8231389 C11.2769085,20.6235183 11.1194879,20.410147 10.9734471,20.19156 C10.8549075,20.0175439 10.9009009,19.7823613 11.074917,19.6657183 C11.2475107,19.5490754 11.4845899,19.5936463 11.6012328,19.7676624 Z M10.7083926,11.0047416 C10.8990043,11.0881935 10.988146,11.3124704 10.9027975,11.503082 C10.8065434,11.7235657 10.7192982,11.9497392 10.6434329,12.1754386 C10.589853,12.3328592 10.4419156,12.4329066 10.284495,12.4329066 C10.2437174,12.4329066 10.2029398,12.4257942 10.1621622,12.4125178 C9.96396396,12.3461356 9.85822665,12.1294452 9.92508298,11.931247 C10.0080607,11.6846847 10.104789,11.4381223 10.2081555,11.1996207 C10.2916074,11.0066382 10.5158843,10.9217639 10.7083926,11.0047416 Z M16.9483167,22.7866287 C17.1578947,22.7866287 17.3447131,22.9554291 17.3447131,23.1664296 C17.3447131,23.3755334 17.1910858,23.5443338 16.981982,23.5443338 L16.9483167,23.5443338 C16.6837364,23.5443338 16.4148886,23.5291607 16.1536273,23.4978663 C15.9464201,23.4717876 15.7980085,23.2830725 15.8221906,23.0753912 C15.8463727,22.868184 16.0369844,22.721669 16.2446657,22.7439545 C16.476055,22.7719298 16.7131342,22.7866287 16.9483167,22.7866287 Z M11.9587482,8.60455192 C12.1066856,8.45614035 12.3475581,8.45614035 12.4959697,8.60265529 C12.6439071,8.75106686 12.6458037,8.99146515 12.4973921,9.13987672 C12.3328592,9.30630631 12.1716453,9.48411569 12.0199147,9.67140825 C11.9440493,9.7619725 11.8345187,9.81033665 11.7254623,9.81033665 C11.6401138,9.81033665 11.5566619,9.78236131 11.4845899,9.72498815 C11.323376,9.59174964 11.2991939,9.35277383 11.4305358,9.18966335 C11.5993362,8.98624941 11.7771456,8.78805121 11.9587482,8.60455192 Z M14.5922238,6.8838312 C14.7889995,6.80986249 15.0071124,6.90990991 15.0815552,7.10621147 C15.1536273,7.30251304 15.0535799,7.52110005 14.859175,7.59506875 C14.6386913,7.67662399 14.4220009,7.77287814 14.2110005,7.88051209 C14.1555239,7.90801328 14.0962541,7.92128971 14.0384068,7.92128971 C13.8999526,7.92128971 13.7662399,7.84495021 13.6998578,7.71360835 C13.6050261,7.52821242 13.6794689,7.29871977 13.8662873,7.20436226 C14.1014699,7.08392603 14.3461356,6.97629208 14.5922238,6.8838312 Z M14.2256994,22.1289711 C14.4110953,22.2238028 14.4869606,22.4513988 14.3907065,22.6386913 C14.3238502,22.7700332 14.1906117,22.8458985 14.0535799,22.8458985 C13.9943101,22.8458985 13.9369369,22.8330963 13.8809862,22.8051209 C13.6477003,22.6865813 13.416311,22.5533428 13.1939308,22.4068279 C13.0199147,22.2920816 12.970128,22.056899 13.0848743,21.8828829 C13.2015173,21.7069701 13.4348032,21.658606 13.610716,21.7714557 C13.8089142,21.9032717 14.0165955,22.0218113 14.2256994,22.1289711 Z" id="path-4"></path>
        <filter x="-8.1%" y="-5.7%" width="116.2%" height="115.9%" filterUnits="objectBoundingBox" id="filter-5">
            <feOffset dx="0" dy="0.5" in="SourceAlpha" result="shadowOffsetOuter1"></feOffset>
            <feGaussianBlur stdDeviation="0.5" in="shadowOffsetOuter1" result="shadowBlurOuter1"></feGaussianBlur>
            <feColorMatrix values="0 0 0 0 0   0 0 0 0 0   0 0 0 0 0  0 0 0 0.2 0" type="matrix" in="shadowBlurOuter1"></feColorMatrix>
        </filter>
    </defs>
    <g id="icon/default" stroke="none" stroke-width="1" fill="none" fill-rule="evenodd">
        <g id="Oval" fill-rule="nonzero">
            <use fill="black" fill-opacity="1" filter="url(#filter-3)" xlink:href="#path-2"></use>
            <use fill="#0667D0" xlink:href="#path-2"></use>
            <use fill="url(#linearGradient-1)" style="mix-blend-mode: soft-light;" xlink:href="#path-2"></use>
            <circle stroke-opacity="0.0970052083" stroke="#000000" stroke-width="1" stroke-linejoin="square" cx="16" cy="15" r="14.5"></circle>
        </g>
        <g id="Combined-Shape">
            <use fill="black" fill-opacity="1" filter="url(#filter-5)" xlink:href="#path-4"></use>
            <use fill="#FFFFFF" fill-rule="evenodd" xlink:href="#path-4"></use>
        </g>
    </g>
</svg>