<?xml version="1.0" encoding="UTF-8"?>
<svg width="32px" height="32px" viewBox="0 0 32 32" version="1.1" xmlns="http://www.w3.org/2000/svg" xmlns:xlink="http://www.w3.org/1999/xlink">
    <!-- Generator: Sketch 52.2 (67145) - http://www.bohemiancoding.com/sketch -->
    <title>svg/icon/mas</title>
    <desc>Created with Sketch.</desc>
    <defs>
        <linearGradient x1="50%" y1="0%" x2="50%" y2="100%" id="linearGradient-1">
            <stop stop-color="#FFFFFF" stop-opacity="0.5" offset="0%"></stop>
            <stop stop-color="#000000" stop-opacity="0.5" offset="100%"></stop>
        </linearGradient>
        <circle id="path-2" cx="16" cy="15" r="15"></circle>
        <filter x="-5.8%" y="-4.2%" width="111.7%" height="111.7%" filterUnits="objectBoundingBox" id="filter-3">
            <feOffset dx="0" dy="0.5" in="SourceAlpha" result="shadowOffsetOuter1"></feOffset>
            <feGaussianBlur stdDeviation="0.5" in="shadowOffsetOuter1" result="shadowBlurOuter1"></feGaussianBlur>
            <feComposite in="shadowBlurOuter1" in2="SourceAlpha" operator="out" result="shadowBlurOuter1"></feComposite>
            <feColorMatrix values="0 0 0 0 0   0 0 0 0 0   0 0 0 0 0  0 0 0 0.199473505 0" type="matrix" in="shadowBlurOuter1"></feColorMatrix>
        </filter>
        <path d="M10.0159412,11.9438979 C10.0759133,10.8657314 10.3371255,9.88066456 10.8704019,8.98308094 C11.8301472,7.36754465 13.2290221,6.35096861 15.0944425,6.06948014 C16.8115507,5.81045744 18.3542636,6.27919238 19.6689871,7.41656953 C21.0067474,8.57365182 21.7048998,10.0574397 21.8054246,11.8208122 C21.8172286,12.0280494 21.8980483,11.9732177 22.0141849,11.9136263 C22.7778306,11.5219032 23.5429995,11.13256 24.3084539,10.7440736 C24.3958419,10.6997132 24.4851339,10.6516403 24.5792807,10.6290793 C24.7972748,10.5768178 24.9749067,10.7078999 24.994231,10.9328431 C25.0051783,11.061355 24.997182,11.1914851 24.997182,11.3209488 C24.9972772,14.7323187 24.9973724,18.1437838 24.9970868,21.5551537 C24.9970868,22.4567355 24.4191645,23.0454148 23.5144413,23.0459859 C18.5040037,23.0485562 13.493566,23.0487465 8.4831284,23.0457955 C7.5757398,23.0452244 7.00676565,22.4613048 7.00667045,21.5542969 C7.00667045,18.0743874 7.01190612,14.5944779 7.00000688,11.1146636 C6.99857897,10.6822927 7.21952409,10.4876211 7.65941527,10.7086614 C8.19554752,10.9781555 8.72320751,11.2644036 9.25448486,11.5435122 C9.49561111,11.6702154 9.73664215,11.7970137 10.0159412,11.9438979 Z M7.64523138,14.0831913 C7.64523138,14.2016125 7.64523138,14.2828129 7.64523138,14.3640134 C7.64523138,16.7392925 7.64523138,19.1146668 7.64523138,21.4899458 C7.64523138,22.1278404 7.92319767,22.4065683 8.56033068,22.4065683 C13.5241233,22.4066634 18.4879159,22.4067586 23.4518037,22.4065683 C24.0707547,22.4065683 24.3586211,22.1193682 24.3586211,21.5019403 C24.3587163,19.1190457 24.3587163,16.7360559 24.3587163,14.3531613 C24.3587163,14.3074682 24.3565269,14.2616799 24.3589067,14.2161772 C24.3637616,14.1258381 24.3402487,14.0829057 24.243722,14.1357383 C24.1772767,14.1721976 24.1069284,14.2015173 24.0393407,14.2360727 C21.4309316,15.5683119 18.8209043,16.8976 16.2170645,18.2385018 C15.958137,18.3717733 15.7531845,18.3691078 15.4980647,18.2329805 C13.3287853,17.0761838 11.1533183,15.9308104 8.97946958,14.7825811 C8.5459564,14.5536397 8.1110153,14.3272685 7.64523138,14.0831913 Z M19.2148168,7.89444309 C19.2084388,7.93099756 19.20168,7.95213061 19.20168,7.97326367 C19.2010137,9.30588358 19.2018704,10.6385987 19.1991098,11.9713138 C19.1989194,12.0713626 19.2313805,12.1331435 19.3081068,12.2013975 C19.4553719,12.332194 19.4553719,12.5268656 19.3230523,12.6412887 C19.2043455,12.744003 19.0732634,12.7519993 18.9512248,12.6461436 C18.8209043,12.5330532 18.8173821,12.3319084 18.9617913,12.2058716 C19.0497505,12.1288598 19.0643152,12.0502296 19.0641248,11.9476105 C19.0625065,10.6073751 19.0606026,9.26704445 19.0664094,7.92671383 C19.0670758,7.77859207 19.0158615,7.68739628 18.8994393,7.60638624 C18.1760606,7.10271512 17.3878548,6.77305852 16.5050262,6.67615109 C16.3617593,6.6604441 16.3192076,6.67320008 16.3195884,6.82436805 C16.3236818,8.56061025 16.3234914,10.2969476 16.3196836,12.0331898 C16.3193028,12.1703643 16.3561429,12.2204363 16.499029,12.2167238 C16.8414416,12.2075851 17.1849013,12.2022543 17.5268379,12.2180565 C17.7295058,12.2274807 17.7963319,12.1766471 17.7945233,11.9596049 C17.7832904,10.6956199 17.789002,9.43144438 17.789002,8.16726891 C17.789002,7.74384628 17.7889068,7.75012908 17.3662457,7.74908195 C17.2111748,7.74870117 17.1520594,7.78944418 17.1537729,7.95422488 C17.1613884,8.67769879 17.1575806,9.40117271 17.1564383,10.1246466 C17.1563431,10.2260282 17.1674808,10.3032304 17.2660065,10.3758634 C17.415461,10.4861932 17.4158418,10.6992372 17.2879963,10.8161354 C17.161198,10.9318912 17.0260226,10.9294162 16.9028417,10.8097574 C16.7849916,10.6953343 16.7807078,10.4830518 16.9214045,10.3857636 C17.0415392,10.3027545 17.0404921,10.2068942 17.0403969,10.0924711 C17.0397305,9.33101478 17.044395,8.5693681 17.0366843,7.8079118 C17.0349708,7.64608211 17.0859948,7.59343986 17.2441119,7.60486313 C17.4107965,7.61695276 17.5794802,7.61581044 17.7463551,7.60505352 C17.8869566,7.5960101 17.92789,7.64570133 17.9275092,7.78544603 C17.9231303,9.2475297 17.9225591,10.7097086 17.9280804,12.1718874 C17.9287467,12.3318132 17.8663947,12.3598954 17.7263644,12.3575156 C17.2999908,12.3504712 16.8728556,12.3409518 16.4473387,12.360657 C16.2183021,12.3712235 16.1748936,12.2933549 16.176036,12.0795493 C16.1847938,10.3434023 16.178511,8.60706489 16.1846034,6.87082269 C16.1852698,6.69528508 16.1448123,6.61160961 15.9587082,6.64226205 C15.9142526,6.64959199 15.8665605,6.6494016 15.8219145,6.64235725 C15.6311459,6.61227596 15.5790748,6.69004941 15.5812642,6.8801517 C15.5912596,7.76345623 15.5864047,8.64685596 15.5848816,9.53025569 C15.5846912,9.63811042 15.5924019,9.72426093 15.691594,9.80650849 C15.8195347,9.91245934 15.8085874,10.1390209 15.6890238,10.2345956 C15.5686035,10.3308367 15.4360935,10.3355012 15.3157684,10.228884 C15.1922066,10.119411 15.1794506,9.91388725 15.3160539,9.80574694 C15.4308578,9.71493192 15.4423763,9.61526387 15.4419955,9.49017904 C15.4397109,8.62962586 15.4417099,7.76907267 15.4396157,6.90861469 C15.4393301,6.80532927 15.4877838,6.67348566 15.2880669,6.68043482 C14.9807809,6.69109654 14.8654058,6.74259646 14.8644539,6.92146587 C14.8616933,7.42408985 14.8647395,7.92671383 14.8622644,8.42924262 C14.8617885,8.51805856 14.8818744,8.57974423 14.9566968,8.64238184 C15.1140524,8.77422545 15.1281411,8.95338043 15.0030563,9.07694216 C14.881208,9.19736249 14.7402258,9.19526822 14.6133323,9.09007893 C14.4845349,8.98327133 14.5001467,8.76365892 14.6532186,8.63191051 C14.7162369,8.57764997 14.7276602,8.52662602 14.727565,8.45742003 C14.7273746,7.94718053 14.7234717,7.43684584 14.7302305,6.92679673 C14.7320391,6.79447716 14.6756843,6.79428677 14.5803,6.82160743 C14.0665383,6.96887245 13.5804781,7.17544329 13.1243088,7.49281987 C13.418934,7.80353288 13.7026119,8.10977177 13.9954285,8.40706243 C14.0878618,8.50092366 14.128224,8.59535604 14.1263201,8.727866 C14.1192758,9.21516376 14.1235595,9.7026519 14.1235595,10.1899497 C14.1235595,10.9210391 14.118895,11.6522237 14.1270817,12.3831228 C14.1288904,12.5438101 14.0831973,12.5985466 13.9226051,12.586457 C13.7484954,12.5733202 13.572577,12.5852195 13.3974202,12.5829348 C13.2395886,12.5808406 13.0999391,12.5779847 12.9787572,12.730771 C12.8731872,12.8639473 12.7101199,12.8260601 12.6032171,12.6963108 C12.4903171,12.5592315 12.5039299,12.4063501 12.631109,12.2866913 C12.7559082,12.169222 12.9180235,12.1745528 13.0112184,12.3083955 C13.0973689,12.4320524 13.1905637,12.448045 13.3167909,12.4435709 C13.4689108,12.4381449 13.6220778,12.4329092 13.7735314,12.4447132 C13.9350755,12.457374 13.9821013,12.3948316 13.981435,12.2370001 C13.9761993,11.0794418 13.9784839,9.92188354 13.9789599,8.76442047 C13.9790551,8.67950748 13.9737242,8.60287636 13.9069933,8.53405114 C13.6317876,8.24989725 13.3583906,7.96383947 13.0910861,7.67226044 C12.9788524,7.54974585 12.9051723,7.64179838 12.8205449,7.6995811 C12.7175451,7.76992942 12.7600016,7.82971121 12.8277796,7.89958356 C13.0663356,8.14518392 13.2992752,8.39611513 13.5370697,8.64238184 C13.6127488,8.72082165 13.6701508,8.79554889 13.669294,8.91758751 C13.6640584,9.74758344 13.6640584,10.5776746 13.6691037,11.4076705 C13.6699604,11.5373246 13.6312165,11.5778773 13.5014671,11.5754974 C13.1055555,11.5681675 12.7094536,11.5734983 12.3134468,11.5724512 C12.221775,11.5721656 12.1485709,11.5764493 12.0794601,11.6669788 C11.9688448,11.8118639 11.7721741,11.8098649 11.6624155,11.6892542 C11.5488491,11.5644549 11.5540848,11.3628341 11.6889746,11.2651652 C11.8306232,11.1626413 11.9824575,11.1691145 12.0885035,11.317617 C12.1445728,11.396152 12.1987381,11.4297555 12.2913618,11.4289939 C12.649291,11.4261381 13.0072202,11.4243294 13.3651494,11.4295651 C13.4968026,11.4315642 13.5334523,11.377018 13.5326907,11.2519332 C13.5285974,10.4903817 13.5297397,9.72883024 13.5319292,8.96727875 C13.5321196,8.88446002 13.5039422,8.82448784 13.4473018,8.76594357 C13.1986552,8.50891995 12.9504846,8.25122996 12.709168,7.98735237 C12.6315849,7.90243938 12.5821793,7.8879699 12.4907931,7.97354925 C11.295538,9.09217319 10.6915325,10.4709622 10.6539309,12.1042045 C10.6508847,12.237952 10.7003856,12.3074436 10.8169029,12.3686533 C12.4576656,13.2305392 14.0964292,14.096328 15.7337649,14.9647823 C15.8382879,15.0202804 15.9194883,15.0293238 16.0265815,14.9686853 C16.2579979,14.8376032 16.4982674,14.7219426 16.7353003,14.6008559 C18.1626382,13.8715751 19.588929,13.1402001 21.0195034,12.4169166 C21.1566779,12.3475202 21.2060835,12.2695564 21.2006575,12.1196259 C21.168006,11.2195673 20.9780941,10.3584429 20.5643812,9.55538689 C20.3753261,9.18822387 20.1599974,8.8345784 19.8356716,8.49264178 C19.8356716,9.12073137 19.8371947,9.6963691 19.8340533,10.2719116 C19.8335774,10.3567294 19.8924072,10.3850972 19.9404802,10.4322182 C20.0623284,10.5514962 20.0708007,10.7548305 19.9538073,10.8608765 C19.8298648,10.9732054 19.686122,10.9855806 19.5678911,10.8604957 C19.4400456,10.7252252 19.4305262,10.5622531 19.5822654,10.4411665 C19.688597,10.3562535 19.7015434,10.262773 19.7006866,10.1445422 C19.6972597,9.68761126 19.6698438,9.22830052 19.7079214,8.77451103 C19.7429527,8.35860872 19.5763634,8.09406477 19.2148168,7.89444309 Z M24.3603346,12.7043071 C24.256954,12.7539983 24.1957443,12.7818902 24.1359625,12.8123522 C21.63141,14.08995 19.1297134,15.3729739 16.621258,16.642861 C15.6732216,17.1228288 16.0455251,17.1264462 15.0845423,16.623727 C12.8834681,15.4719756 10.6892479,14.3069922 8.49207663,13.1477205 C8.21991717,13.004168 7.94671057,12.8626146 7.6433275,12.7040215 C7.6433275,12.8909824 7.65160937,13.0349156 7.64085245,13.1772306 C7.6306667,13.3110732 7.68502244,13.3808504 7.8018254,13.4423457 C10.4103296,14.8151374 13.0175012,16.190309 15.6217217,17.5711923 C15.7953554,17.6632448 15.9307212,17.6646727 16.1061636,17.5739529 C17.5573,16.8241103 19.013196,16.0834062 20.4681401,15.3411791 C21.7065181,14.709377 22.9457527,14.0791931 24.1844162,13.4480573 C24.2706619,13.4040777 24.3692828,13.3767571 24.3624289,13.2431048 C24.3538614,13.0772769 24.3603346,12.9107827 24.3603346,12.7043071 Z M24.3491969,11.4488895 C24.2660926,11.4846824 24.2030742,11.5078145 24.1436732,11.537991 C23.0874965,12.0752656 22.0317957,12.6132065 20.9759998,13.1513378 C19.3652232,13.9721951 17.7540658,14.7924813 16.1444316,15.6154329 C15.9787941,15.7001555 15.8263886,15.7299512 15.6488519,15.6358044 C13.4404478,14.4653949 11.2299494,13.299174 9.01992701,12.131906 C8.62353946,11.9225745 8.22753268,11.7121007 7.82924125,11.5062914 C7.77726536,11.4795419 7.71215271,11.4047195 7.65313247,11.4830641 C7.55641543,11.6114807 7.67902522,12.0065355 7.83495289,12.0888783 C10.441934,13.4641451 13.0497719,14.8376032 15.6539924,16.2181057 C15.8067787,16.2992109 15.9181556,16.2984493 16.0704659,16.2203903 C18.6940108,14.8773943 21.3206018,13.540205 23.9470977,12.2028254 C24.3815629,11.9815947 24.3828004,11.9839746 24.3491969,11.4488895 Z" id="path-4"></path>
        <filter x="-9.7%" y="-7.3%" width="119.4%" height="120.5%" filterUnits="objectBoundingBox" id="filter-5">
            <feOffset dx="0" dy="0.5" in="SourceAlpha" result="shadowOffsetOuter1"></feOffset>
            <feGaussianBlur stdDeviation="0.5" in="shadowOffsetOuter1" result="shadowBlurOuter1"></feGaussianBlur>
            <feColorMatrix values="0 0 0 0 0   0 0 0 0 0   0 0 0 0 0  0 0 0 0.2 0" type="matrix" in="shadowBlurOuter1"></feColorMatrix>
        </filter>
    </defs>
    <g id="icon/mas" stroke="none" stroke-width="1" fill="none" fill-rule="evenodd">
        <g id="Oval" fill-rule="nonzero">
            <use fill="black" fill-opacity="1" filter="url(#filter-3)" xlink:href="#path-2"></use>
            <use fill="#FED44B" xlink:href="#path-2"></use>
            <use fill="url(#linearGradient-1)" style="mix-blend-mode: soft-light;" xlink:href="#path-2"></use>
            <circle stroke-opacity="0.0970052083" stroke="#000000" stroke-width="1" stroke-linejoin="square" cx="16" cy="15" r="14.5"></circle>
        </g>
        <g id="mas">
            <use fill="black" fill-opacity="1" filter="url(#filter-5)" xlink:href="#path-4"></use>
            <use fill="#FFFFFF" fill-rule="evenodd" xlink:href="#path-4"></use>
        </g>
    </g>
</svg>