<?xml version="1.0" encoding="UTF-8"?>
<svg width="32px" height="32px" viewBox="0 0 32 32" version="1.1" xmlns="http://www.w3.org/2000/svg" xmlns:xlink="http://www.w3.org/1999/xlink">
    <!-- Generator: Sketch 52.5 (67469) - http://www.bohemiancoding.com/sketch -->
    <title>svg/icon/pax</title>
    <desc>Created with Sketch.</desc>
    <defs>
        <linearGradient x1="105.316548%" y1="108.795608%" x2="-2.43852166%" y2="0%" id="linearGradient-1">
            <stop stop-color="#1992D1" offset="0%"></stop>
            <stop stop-color="#BAD13F" offset="100%"></stop>
        </linearGradient>
        <linearGradient x1="50%" y1="0%" x2="50%" y2="100%" id="linearGradient-2">
            <stop stop-color="#FFFFFF" stop-opacity="0.5" offset="0%"></stop>
            <stop stop-color="#000000" stop-opacity="0.5" offset="100%"></stop>
        </linearGradient>
        <circle id="path-3" cx="16" cy="15" r="15"></circle>
        <filter x="-5.8%" y="-4.2%" width="111.7%" height="111.7%" filterUnits="objectBoundingBox" id="filter-4">
            <feOffset dx="0" dy="0.5" in="SourceAlpha" result="shadowOffsetOuter1"></feOffset>
            <feGaussianBlur stdDeviation="0.5" in="shadowOffsetOuter1" result="shadowBlurOuter1"></feGaussianBlur>
            <feComposite in="shadowBlurOuter1" in2="SourceAlpha" operator="out" result="shadowBlurOuter1"></feComposite>
            <feColorMatrix values="0 0 0 0 0   0 0 0 0 0   0 0 0 0 0  0 0 0 0.199473505 0" type="matrix" in="shadowBlurOuter1"></feColorMatrix>
        </filter>
    </defs>
    <g id="icon/pax" stroke="none" stroke-width="1" fill="none" fill-rule="evenodd">
        <g id="Oval" fill-rule="nonzero">
            <use fill="black" fill-opacity="1" filter="url(#filter-4)" xlink:href="#path-3"></use>
            <use fill="url(#linearGradient-1)" xlink:href="#path-3"></use>
            <use fill="url(#linearGradient-2)" style="mix-blend-mode: soft-light;" xlink:href="#path-3"></use>
            <circle stroke-opacity="0.0970052083" stroke="#000000" stroke-width="1" stroke-linejoin="square" cx="16" cy="15" r="14.5"></circle>
        </g>
        <path d="M23.9610516,16.4947362 C24.0017747,16.2379352 24.0351382,15.8765789 24.0586889,15.5059985 C24.0822397,15.1358106 24.0964682,14.7600785 24.0964682,14.4816894 C24.0964682,14.448473 24.0964682,14.4165324 24.0959776,14.3861127 C24.0925431,14.1408418 24.0714456,13.7863053 24.0400446,13.430346 C24.0086437,13.0739942 23.9679205,12.721224 23.9203285,12.4736961 C23.8894181,12.3145325 23.8315226,12.1028214 23.7672488,11.8902271 C23.7034656,11.6781234 23.6337947,11.470043 23.5793337,11.325942 C23.468449,11.0365625 23.2265635,10.5222246 23.0769183,10.2529614 C23.0150977,10.142273 22.9223667,9.99571884 22.8257106,9.84941 C22.7295452,9.7034446 22.6314172,9.56081555 22.5597838,9.463031 C22.4773562,9.35126321 22.3542056,9.19327714 22.2266392,9.03661579 C22.0985822,8.87975818 21.9685626,8.72697289 21.8665094,8.62123997 C21.7546435,8.50574331 21.5902791,8.35482245 21.421499,8.20635479 C21.3439779,8.13864647 21.2669474,8.07265539 21.1933514,8.0111782 C21.2105238,8.01834154 21.2272055,8.02530863 21.2419247,8.03193227 C21.4057985,8.1049395 21.6506278,8.21984739 21.8900602,8.34020138 C22.1285112,8.46001567 22.3654903,8.58792551 22.5013976,8.67756544 C22.7741934,8.85591308 23.3286166,9.26368398 23.585712,9.4693112 C23.8570359,9.68553624 24.4031182,10.1619477 24.6553072,10.4010365 C24.9251592,10.6562184 25.4648632,11.2102981 25.70773,11.4875097 C25.8195959,11.6150761 25.9873947,11.8169254 26.1502872,12.0207373 C26.3126891,12.2242548 26.4721471,12.4323842 26.564878,12.5672121 C26.6595715,12.7049838 26.7954788,12.9187557 26.9294235,13.1407703 C26.8882098,13.2545987 26.8362019,13.3829502 26.7753626,13.5208691 C26.4956978,14.1522737 26.0516686,14.952851 25.7999703,15.3886865 C25.4270839,16.0358897 24.774042,17.0240386 24.0778239,17.9715135 C23.7294695,18.4454717 23.370321,18.9099606 23.0298169,19.3177315 C22.8144259,19.5762988 22.6059039,19.8120023 22.4140637,20.0121834 C22.4454646,19.9662595 22.4753937,19.9225925 22.5004163,19.8853039 C22.5892222,19.7526348 22.7182605,19.5544653 22.8448456,19.3527632 C22.9709401,19.1504723 23.0936001,18.9474946 23.1725931,18.7954943 C23.3207664,18.5086662 23.5557829,17.9613082 23.6612705,17.6553942 C23.7113158,17.5084475 23.7726458,17.2975214 23.8290694,17.0828173 C23.885493,16.8678188 23.9355383,16.6538017 23.9610516,16.4947362 Z M10.8700406,6.81342785 C11.0492223,6.61854564 11.3591105,6.33044184 11.6742977,6.05038453 C11.8138357,5.92625261 11.9543059,5.80364168 12.0868768,5.6891263 C12.4323855,5.70124511 12.7949194,5.72018382 13.0188966,5.74049631 C13.6152204,5.79377982 14.8370612,5.96437534 15.4239157,6.07844914 C15.6307695,6.11848536 15.9486061,6.19041319 16.2633517,6.2679343 C16.57795,6.34540636 16.8925484,6.42940393 17.0905707,6.49176427 C17.3383439,6.56962884 17.7006325,6.69302479 18.0694956,6.82873582 C17.9801991,6.82618449 17.8832977,6.82490882 17.7798708,6.82490882 C17.4343131,6.82490882 17.0208507,6.83854862 16.6259346,6.86411096 C16.2305769,6.88991862 15.8566111,6.92676569 15.5802827,6.97681097 C15.3210776,7.02425585 14.9681602,7.1234142 14.6157826,7.2355745 C14.2639446,7.34793106 13.9188775,7.47196485 13.6841063,7.57195728 C13.4663602,7.66478637 13.1409678,7.81031019 12.817587,7.96397863 C12.4935683,8.11818678 12.1750449,8.27808636 11.9598992,8.40825315 C11.7555477,8.53204162 11.4503696,8.72025112 11.148626,8.91685056 C10.9977051,9.01517482 10.8476674,9.11560883 10.710926,9.21167614 C10.5740375,9.30789064 10.4508869,9.39914968 10.3507472,9.48255848 C10.1668554,9.6359816 9.92948373,9.86991875 9.69692037,10.1122458 C9.46474953,10.3544748 9.24145927,10.6017574 9.09465978,10.7780443 C8.99162538,10.902029 8.85900539,11.0818977 8.72888767,11.2658386 C8.59906433,11.4496323 8.47404925,11.6346527 8.39137642,11.7647213 C8.31567066,11.8839469 8.21194937,12.0585656 8.11097566,12.2366679 C8.00995289,12.4150647 7.91310055,12.5937557 7.85015144,12.7259342 C7.79750577,12.8368679 7.73700986,12.9888191 7.67783867,13.1426347 C7.61901094,13.2958125 7.56288172,13.4487941 7.52569121,13.5490809 C7.47559687,13.6837615 7.39900797,13.888015 7.32501945,14.0943291 C7.25083469,14.3014773 7.17974095,14.5081839 7.13744779,14.6619014 C7.09971757,14.799575 7.05487307,14.9959291 7.01414996,15.1952271 C6.97357403,15.3946723 6.93780637,15.592989 6.91979988,15.7374334 C6.89389409,15.946446 6.87421943,16.239309 6.86023619,16.5392372 C6.84635108,16.8387239 6.83864803,17.142381 6.83864803,17.366211 C6.83859897,17.3924111 6.83874616,17.4174338 6.83894241,17.4413279 C6.84105217,17.6760501 6.85483915,18.0192037 6.87613292,18.3636821 C6.88859518,18.5636179 6.90346157,18.7620817 6.92029052,18.9406256 C6.86067777,18.7051675 6.80194816,18.4197131 6.75445421,18.1334247 C6.68934628,17.7431697 6.64459991,17.3472232 6.64033134,17.0769787 C6.64003696,17.0616707 6.63993883,17.045774 6.63993883,17.0290431 C6.63959538,16.7228838 6.68473426,16.2246389 6.7453283,15.7358633 C6.80572609,15.246499 6.8814809,14.7602748 6.93918016,14.4665777 C7.00576001,14.1266132 7.1231211,13.6102637 7.25574109,13.1011756 C7.32202655,12.8465825 7.39223713,12.5935104 7.46161363,12.3651666 C7.530892,12.137019 7.59972879,11.9329127 7.66115691,11.7801765 C7.80035148,11.4326071 8.07064505,10.9053654 8.35757132,10.389899 C8.64459572,9.87379481 8.95026443,9.36421611 9.16202465,9.03941243 C9.35018509,8.75057267 9.66134897,8.31861322 9.98296349,7.8977913 C10.3042836,7.47701844 10.6391454,7.06370331 10.8700406,6.81342785 Z M8.3566391,23.2910323 C8.40908852,23.3676212 8.48425457,23.4610881 8.57355105,23.5683911 C8.61893524,23.622705 8.66770486,23.6799626 8.71721044,23.7375147 C8.45839784,23.6844765 8.20198938,23.6241278 8.04783029,23.5756035 C7.95720909,23.547588 7.79632823,23.4807628 7.63834215,23.4107485 C7.47893322,23.3402926 7.31937709,23.2664022 7.20599019,23.2172401 C7.08848191,23.1663607 6.91661072,23.0950216 6.74680022,23.0219163 C6.57782381,22.9493016 6.40909272,22.8735958 6.31322166,22.8228636 C6.21038352,22.768697 6.04984611,22.676702 5.89416604,22.5814688 C5.73887848,22.4867262 5.58467033,22.3857034 5.50052558,22.320988 C5.41554673,22.2560273 5.27978664,22.1388624 5.1511899,22.0188519 C5.02254409,21.8991848 4.896744,21.772109 4.83237203,21.6948823 C4.76147455,21.6106885 4.6508843,21.457756 4.54956714,21.3033025 C4.44805373,21.1491925 4.35213361,20.9871832 4.3075835,20.8924406 C4.29296242,20.8617265 4.27309151,20.8128588 4.25282807,20.757073 C4.19154714,20.5894704 4.12388788,20.3517062 4.09969933,20.2332658 C4.07673738,20.1231661 4.0505372,19.9351038 4.03154944,19.7487588 C4.01236541,19.5624137 3.99985409,19.3721926 4.00000128,19.2579225 L4.00000128,19.2548805 L4.00005035,19.2533105 C4.00000128,19.1505705 4.01526019,18.9692299 4.0359652,18.7907351 C4.05652301,18.6114553 4.08233068,18.430311 4.10161283,18.3143237 C4.11927587,18.2076585 4.15582855,18.034757 4.19512881,17.8639162 C4.23442907,17.6927319 4.2769185,17.5208116 4.30650409,17.4106139 C4.33942603,17.2874632 4.39506461,17.0972912 4.45315638,16.9091798 C4.51110097,16.7212156 4.5723819,16.5329571 4.61501852,16.4160375 C4.66673197,16.2737519 4.76216145,16.0483029 4.85911191,15.8240313 C4.9563077,15.5988766 5.05526978,15.3738691 5.11959269,15.2161774 C5.15693039,15.1246731 5.2161997,14.9836141 5.27409522,14.840936 C5.33218699,14.6974238 5.38851247,14.5544513 5.42423106,14.4442045 C5.45543576,14.3468124 5.48546293,14.2218464 5.51539197,14.0962917 C5.54487943,13.9720616 5.57368,13.8481259 5.59364905,13.7774247 L5.340626,13.7062819 L5.59369811,13.7773757 C5.63594221,13.6267492 5.71385585,13.388936 5.79103352,13.1505831 C5.86845651,12.9110526 5.94509447,12.6717184 5.98974271,12.4958731 C6.03385125,12.3208618 6.08468155,12.0707335 6.13305866,11.8190352 C6.1812395,11.5678766 6.22642745,11.3170614 6.25645461,11.1505873 C6.29555862,10.9335281 6.3450642,10.6150537 6.39481509,10.2966284 C6.44446786,9.97879177 6.49441501,9.66095518 6.53229242,9.45626017 C6.55402777,9.338065 6.59313178,9.15397687 6.63581746,8.97278352 C6.67830688,8.79193362 6.72560458,8.61034776 6.76034189,8.50397701 C6.78874994,8.41620151 6.84193532,8.27376872 6.89850611,8.13565357 C6.95478252,7.99778373 7.01684847,7.85957044 7.05717908,7.78514036 L7.05727721,7.78499316 C7.10609589,7.69397944 7.19598114,7.54683651 7.28984057,7.40675879 C7.33684388,7.33649915 7.38512285,7.26741703 7.42991829,7.20701925 C7.47456652,7.1467196 7.51636905,7.09456457 7.54659248,7.06120105 C7.58191856,7.02199891 7.63657585,6.96832289 7.70011373,6.91057457 C7.89082549,6.73664269 8.1654367,6.52100641 8.31547441,6.41802108 C8.39888321,6.36046901 8.54298417,6.27210474 8.68737952,6.19090383 C8.8313333,6.10960478 8.98132194,6.03296681 9.06747833,5.99803324 C9.16339845,5.95853672 9.33767377,5.90338879 9.51101688,5.85653267 C9.68440905,5.8093331 9.86295295,5.76841373 9.96956902,5.75129039 C10.1280457,5.72528647 10.3981921,5.70566087 10.6667684,5.6940327 C10.8969767,5.68387646 11.128706,5.67872474 11.3035701,5.67666405 C10.9895114,5.95667229 10.6841862,6.23957531 10.4834163,6.45717415 C10.2315217,6.73070595 9.89337263,7.14931999 9.56518354,7.57862998 C9.23728883,8.00793998 8.92244514,8.44431519 8.7216262,8.75238804 C8.49980785,9.092745 8.19104811,9.60786793 7.89813603,10.1343737 C7.60517489,10.6615664 7.32992585,11.1948921 7.17331357,11.584313 C7.1028086,11.7599131 7.03078265,11.9749115 6.95860951,12.2123322 C6.74258072,12.9240055 6.52763134,13.8337993 6.42327221,14.3654077 C6.36179502,14.6790248 6.2855005,15.1704989 6.22358173,15.6714423 C6.16190829,16.1730236 6.11451246,16.6775977 6.11421808,17.0290431 C6.11421808,17.0482762 6.11436527,17.067264 6.11465966,17.0859574 C6.12025295,17.4009973 6.16809035,17.8107308 6.23584773,18.2196792 C6.30399763,18.6284805 6.39147874,19.031394 6.48239433,19.3295069 C6.57851071,19.6435165 6.74645677,20.0803823 6.92534412,20.5150894 C7.10423146,20.9493548 7.29288254,21.3775854 7.42947671,21.6653948 C7.53172608,21.8806877 7.69609048,22.1868961 7.86909014,22.4909457 C8.042237,22.7949462 8.22156591,23.0926666 8.3566391,23.2910323 Z M15.5239572,5.56234493 C14.9054073,5.4427269 13.6924472,5.2734561 13.065998,5.21688531 C12.9573703,5.20717064 12.8227878,5.19794661 12.6760373,5.18955666 C12.8844612,5.01994242 13.1576986,4.8099485 13.437805,4.61781388 C13.6136013,4.49711644 13.7918999,4.38368047 13.9557736,4.29251956 C14.1191568,4.20126053 14.2699795,4.13281625 14.3788034,4.10102277 C14.4816907,4.07030871 14.6332984,4.0434707 14.8050715,4.02624924 C14.977237,4.00878246 15.1707455,4 15.3647936,4 C15.5640425,4 15.7642727,4.0092731 15.9432091,4.02703426 C16.121802,4.04459918 16.2803278,4.07153531 16.3889064,4.10210218 C16.4917446,4.13065743 16.6316751,4.18443157 16.7850982,4.25263053 C17.0159443,4.3550271 17.2794671,4.48956059 17.5262099,4.62100304 C17.7732472,4.75264175 18.0035045,4.88104224 18.1744435,4.97372413 C18.443167,5.11949327 18.851036,5.35392106 19.2647437,5.57986078 C19.4718428,5.69290423 19.6808064,5.80408325 19.8766699,5.90186781 C20.0727787,5.99975048 20.2549533,6.08414056 20.414166,6.14488179 C20.5612108,6.20091288 20.739951,6.25797431 20.936992,6.31513387 C21.5274772,6.48617097 22.2791377,6.65612867 22.721695,6.73625018 C22.9154978,6.77108562 23.1480611,6.79684422 23.4027033,6.82152341 C23.7834399,6.85832141 24.2122593,6.89202838 24.60379,6.94104331 C24.7995553,6.96552625 24.9855079,6.99383617 25.1503629,7.02739595 C25.3147273,7.06080853 25.4575036,7.10015786 25.5625005,7.14225477 C25.6527783,7.17826775 25.7764196,7.24067716 25.9108549,7.32050428 C26.1125079,7.44022044 26.3416368,7.59923686 26.5477056,7.76914549 C26.7537744,7.93856348 26.9382551,8.12122875 27.050121,8.27582941 C27.1933879,8.46968127 27.3209542,8.79512278 27.4053443,9.13160369 C27.4912063,9.46813366 27.5397797,9.81825436 27.553027,10.0666654 C27.5544989,10.0975266 27.5554802,10.1308411 27.5554802,10.1660691 C27.5554802,10.3426994 27.5334014,10.5674616 27.4961127,10.8118003 C27.4151571,11.3429181 27.2630587,11.965295 27.1281327,12.4653553 C27.0810313,12.3927896 27.0368737,12.3260626 26.9981131,12.2692464 C26.890663,12.1138117 26.7282611,11.9023949 26.5609529,11.6926463 C26.3936447,11.4831921 26.2233926,11.2782027 26.1026951,11.1408726 C25.8387308,10.8404537 25.3049145,10.2924088 25.0169088,10.0193186 C24.7460756,9.76310642 24.2053903,9.29160139 23.9134595,9.05844927 C23.6367385,8.83756314 23.0886937,8.43435519 22.7898939,8.23795201 C22.6181699,8.12569357 22.3743218,7.99567398 22.126058,7.87046265 C21.8777942,7.74584009 21.628549,7.62872433 21.4558438,7.55179197 C21.2895168,7.47770534 21.0559722,7.3967988 20.8173249,7.32173088 C20.5792173,7.24710454 20.3414041,7.18052469 20.172673,7.14146975 C20.0873016,7.12174602 19.9899096,7.10079569 19.8855995,7.07955098 C19.7443933,6.99113765 19.6112827,6.91263526 19.4978467,6.85405284 C19.356248,6.78114374 19.1828559,6.70347543 18.9911628,6.62350111 C18.4166725,6.38406879 17.6800746,6.12613935 17.2482624,5.99023207 C17.0296332,5.92154247 16.7108644,5.83680894 16.3890536,5.75747246 C16.06739,5.67828316 15.7458246,5.60537406 15.5239572,5.56234493 Z M9.29228957,15.5780244 C9.29228957,19.042875 12.2588462,21.8516908 15.7236967,21.8516908 C19.1884982,21.8516908 21.9975103,19.042875 21.9975103,15.5780244 C21.9975103,12.1132229 20.0871544,8.81371804 15.9148991,8.81371804 C12.2188099,8.81371804 9.29228957,12.1132229 9.29228957,15.5780244 Z M11.7533888,24.0371976 C11.4735769,24.0209574 11.1988185,24.0031472 10.9423119,23.9852879 C10.5169761,23.9557023 10.1407533,23.9261167 9.87104851,23.9038417 C9.73617157,23.8928023 9.62793639,23.8835292 9.5535063,23.8771018 C9.55012089,23.8768074 9.54781488,23.8766111 9.54457666,23.8763168 C9.43477143,23.7454631 9.29444839,23.5633375 9.15966958,23.37817 C8.99559957,23.1531134 8.83712285,22.9206482 8.74606007,22.770218 C8.68198248,22.6648776 8.58665113,22.4788759 8.4964715,22.2920893 C8.40589936,22.1047139 8.31836918,21.9137077 8.26179839,21.7871717 C8.19634702,21.6408138 8.09949468,21.4180632 8.00794126,21.1951164 C7.91653503,20.9729055 7.82954456,20.7472111 7.78666262,20.6077222 C7.73656828,20.4459091 7.67101878,20.181356 7.61327045,19.9174408 C7.555424,19.6534765 7.50434837,19.3856361 7.48035608,19.2157765 C7.45027984,19.004507 7.42157741,18.667192 7.4008724,18.3311526 C7.37997113,17.994868 7.3665276,17.6561301 7.36466317,17.4366178 C7.36446691,17.4143918 7.36436878,17.3908901 7.36436878,17.366211 C7.36431972,17.1541073 7.37182651,16.8553566 7.38536817,16.563573 C7.39881171,16.2721328 7.41868263,15.9847159 7.44149739,15.8021488 C7.4560694,15.6836102 7.4904142,15.4904452 7.52927288,15.3002731 C7.56803344,15.1100029 7.61204385,14.9186533 7.64442609,14.8010469 C7.67852557,14.6760809 7.74770581,14.4727597 7.81987895,14.2717936 C7.89219929,14.0700424 7.9679541,13.868095 8.01849002,13.7321386 C8.0562693,13.6303309 8.11161349,13.4796553 8.16862586,13.3310895 C8.22529478,13.1832106 8.28505473,13.0352336 8.3248947,12.9517267 C8.3769516,12.8420686 8.47115448,12.6671555 8.56835026,12.4959221 C8.66554604,12.3244434 8.76720665,12.1534063 8.83511123,12.0466431 C8.9103754,11.9281045 9.03288821,11.7465677 9.15819766,11.5692994 C9.28321273,11.3922765 9.41337952,11.2166765 9.49875088,11.114378 C9.63284279,10.9531537 9.85196261,10.7100907 10.0763813,10.4760554 C10.3003094,10.2422164 10.5336088,10.0140688 10.6872281,9.88650238 L10.5189877,9.68445683 L10.6872772,9.88640425 C10.769165,9.81815623 10.8834841,9.73283394 11.0131112,9.64186928 C11.4029738,9.36789591 11.931393,9.04014839 12.2323516,8.85787564 C12.4146734,8.74708913 12.7279471,8.58851428 13.0432814,8.43882002 C13.3591554,8.28863512 13.6806227,8.14492666 13.8903223,8.05553206 C14.0991386,7.96638277 14.4368952,7.8443606 14.775584,7.7364198 C15.1137822,7.62828275 15.4590455,7.53290234 15.6742893,7.49404365 C15.9136725,7.45037669 16.2773349,7.41338243 16.659985,7.38875231 C17.0430767,7.36392592 17.448051,7.35062958 17.7798708,7.35062958 C17.9215186,7.35062958 18.0499681,7.35303371 18.156437,7.35789105 C18.3935633,7.36839075 18.7502095,7.41387307 19.1036175,7.47122889 C19.3050252,7.50380738 19.5058932,7.54021287 19.6869394,7.5758824 C19.7745677,7.63186442 19.8654342,7.69147718 19.9555648,7.75221841 C20.2164871,7.92767127 20.4744166,8.11249536 20.6371128,8.23711792 C20.7453971,8.32003608 20.9127053,8.4594269 21.0746165,8.60161437 C21.2365277,8.74350745 21.3964763,8.89114103 21.4887167,8.98661957 C21.5696722,9.07046995 21.696748,9.21883948 21.8189174,9.36882813 C21.9415774,9.51911116 22.0617842,9.67371182 22.1358708,9.77453834 C22.1991634,9.86020408 22.2948382,9.99920239 22.3870785,10.1387895 C22.4788282,10.2780331 22.5686153,10.4208584 22.6176793,10.5092227 C22.7472082,10.7403141 22.9944908,11.2663783 23.0877124,11.5128758 C23.1353045,11.6378418 23.2030128,11.840378 23.2643428,12.0422764 C23.3251821,12.2437332 23.3801338,12.4494095 23.4041752,12.5731489 C23.4448983,12.7855469 23.4861121,13.1316444 23.5165317,13.476368 C23.5469514,13.8213861 23.5670677,14.1700348 23.5700115,14.3934232 C23.5705021,14.4209972 23.5705021,14.4505337 23.5705021,14.4816894 C23.5709928,14.7430042 23.5572549,15.1122108 23.5341948,15.4723896 C23.5111347,15.832225 23.4782618,16.1866633 23.4419545,16.4117199 C23.4218382,16.5374219 23.3742461,16.7454532 23.3207664,16.9495104 C23.266796,17.153911 23.2069379,17.3592439 23.1637616,17.4853874 C23.0744651,17.7475854 22.8345422,18.3069641 22.7059945,18.5533144 C22.6407394,18.678722 22.5215138,18.8781672 22.3988538,19.0738344 C22.2761938,19.2700413 22.1491181,19.4653651 22.0637467,19.5927352 C21.9886788,19.7049937 21.8689626,19.8760798 21.7477746,20.0442222 C21.6265865,20.2122664 21.5024546,20.3793783 21.4205177,20.4805974 C21.341034,20.5789707 21.2134676,20.7291556 21.0839387,20.8747775 C20.954655,21.020056 20.820465,21.163372 20.7356824,21.242365 C20.5907473,21.3779779 20.3470465,21.5805141 20.0994695,21.7742678 C19.8519416,21.9682178 19.5968579,22.1564273 19.4298931,22.2664288 C19.2482582,22.3862431 18.9495075,22.55939 18.6481564,22.72346 C18.3516627,22.8850277 18.0496247,23.0396284 17.8484623,23.1322122 C17.4563919,23.2858806 17.0290935,23.437979 16.5943865,23.5740825 C16.1304373,23.7195573 15.6593248,23.8455536 15.217945,23.9380393 C15.0035353,23.9639451 14.675886,23.9889677 14.3481875,24.0085442 C14.0110197,24.0287586 13.6720856,24.0436741 13.4490897,24.0500033 C13.3103367,24.0538794 13.1212931,24.0556947 12.9164019,24.0556947 C12.5077478,24.0556947 12.0333971,24.0484823 11.7533888,24.0371976 Z M27.9926404,15.9905545 C27.9970562,16.0252428 28,16.0994766 28,16.1776846 C28,16.2942116 27.994603,16.4251144 27.9906778,16.50607 C27.9842995,16.6370218 27.9720335,16.8362216 27.9548611,17.0324776 C27.9465202,17.1305566 27.9367074,17.2279486 27.9254227,17.3150863 C27.9146286,17.4020767 27.9028533,17.4794016 27.8910779,17.5330285 C27.8778306,17.5965174 27.8444671,17.7128481 27.8066878,17.8245178 C27.7698898,17.9362856 27.7267135,18.0494271 27.6992377,18.1082058 C27.6707806,18.1705171 27.6123944,18.2788013 27.5505738,18.3810016 C27.5201541,18.4323717 27.4882625,18.4829076 27.4588241,18.5268689 C27.4293857,18.5706831 27.4019098,18.6083642 27.3837562,18.6308846 C27.3160478,18.7142443 27.1978036,18.8421542 27.0775968,18.9650595 C26.9568994,19.0882592 26.8312955,19.2093491 26.7473961,19.283583 C26.6600622,19.3607607 26.5378928,19.4735588 26.4142515,19.5816958 C26.3524309,19.6356172 26.2911009,19.6882138 26.2351679,19.7333036 C26.1797256,19.7783443 26.1291897,19.8162218 26.0948449,19.8383987 C26.0737474,19.8521857 26.0344962,19.8740682 25.9888667,19.8971283 C25.9196864,19.9321109 25.8338244,19.9713621 25.7513969,20.0085526 C25.6684788,20.0459394 25.5899764,20.0808239 25.5266838,20.1118324 C25.4511252,20.1489247 25.3078584,20.2103529 25.1655728,20.2708488 C25.0213246,20.3319825 24.8780577,20.3923803 24.7794391,20.4393345 C24.6808204,20.4868285 24.5189092,20.5580204 24.3569981,20.6303898 C24.1941056,20.7033479 24.0321944,20.7766986 23.9154221,20.8385683 C23.8325039,20.882824 23.7245631,20.947196 23.6166223,21.0132852 C23.5091721,21.0791291 23.4031939,21.1458561 23.3330324,21.1905044 C23.1716118,21.2929009 22.9331608,21.4473544 22.6952004,21.6046045 C22.45724,21.7620509 22.2217328,21.9212636 22.0622748,22.0361715 C21.8660188,22.1779174 21.5083423,22.4607223 21.3258242,22.6120356 C21.2517375,22.6732675 21.1501751,22.7623677 21.0481219,22.852302 C20.9469029,22.9420401 20.8463217,23.0320725 20.77984,23.0912437 C20.4771642,23.360556 19.8806931,23.900996 19.5820896,24.1715839 C19.4331313,24.3064118 19.1381095,24.5761657 18.9909175,24.7091782 C18.925368,24.7683493 18.8307236,24.8555361 18.7358828,24.9416434 C18.6414837,25.0274073 18.5459561,25.1127786 18.4866868,25.1619407 L18.486883,25.1617935 C18.4174575,25.2193947 18.3034818,25.3084458 18.1892118,25.3956326 C18.0747945,25.4829174 17.9587091,25.5695154 17.8828071,25.6243689 C17.8088676,25.6777506 17.6956279,25.7582155 17.582241,25.8362763 C17.4693938,25.9140918 17.3541425,25.9907298 17.2844225,26.0321889 C17.1997381,26.0826757 17.0666765,26.1585778 16.9339093,26.2290337 C16.8675257,26.2643107 16.8010931,26.298263 16.741235,26.3270145 C16.6815732,26.3557169 16.62775,26.3793167 16.5915408,26.3927112 C16.5544974,26.4064981 16.4968472,26.4241612 16.4311015,26.441677 C16.2325395,26.4948624 15.959989,26.5490291 15.8064186,26.5778787 C15.726199,26.5929904 15.6058941,26.6150692 15.4876008,26.633272 C15.4285768,26.6423488 15.3700925,26.6504443 15.3185753,26.6561848 C15.2674015,26.6619253 15.2223117,26.6651635 15.1953756,26.6654089 L15.1870838,26.6654089 C15.0990139,26.6657523 14.9393596,26.6502972 14.7829927,26.6292487 C14.6256444,26.6083965 14.4671186,26.5825398 14.3629067,26.5641898 C14.2428471,26.5430923 14.0539998,26.5035467 13.8678019,26.4603704 C13.6818003,26.4173904 13.4950627,26.3698473 13.3824117,26.3352082 C13.2559248,26.2964476 13.0563815,26.2261879 12.8608124,26.1517088 C12.6653905,26.0773768 12.4699686,25.9971572 12.353785,25.9417639 C12.1872127,25.8625256 11.9291361,25.7228404 11.6769962,25.5772675 C11.4248072,25.4318418 11.174679,25.2783696 11.0227768,25.1738633 C10.9351485,25.1139071 10.7925195,25.0013543 10.6535212,24.8867898 C10.513885,24.7718329 10.375083,24.6531961 10.2835786,24.5740068 C10.2492338,24.5442741 10.207235,24.5078195 10.1626849,24.4689117 C10.2917232,24.4792152 10.4240979,24.4889789 10.5571595,24.4980558 C10.9962332,24.5278867 11.4345219,24.5504071 11.7283171,24.5623296 C11.7315063,24.5624768 11.7354314,24.5625749 11.7386696,24.5627221 C12.3869523,24.6001579 13.0632014,24.6291057 13.6200287,24.6291548 C13.9034714,24.6291057 14.1556604,24.6217952 14.3625633,24.6033962 C14.6565057,24.5770488 14.9745876,24.5255316 15.3041995,24.4572345 C15.4336304,24.4409943 15.6171788,24.4122919 15.8021501,24.3788302 C15.9886423,24.344927 16.1722889,24.3074421 16.306577,24.2703007 C16.5415445,24.2048493 16.8682126,24.0908736 17.1939485,23.9679683 C17.5189975,23.8451611 17.8388948,23.7148471 18.0559539,23.6154925 C18.3913554,23.4837066 18.7031572,23.3503507 18.9728129,23.2229315 C19.2280929,23.1020869 19.519484,22.9307554 19.83001,22.7295439 C20.7602635,22.1257133 21.856206,21.2540423 22.4547868,20.7085978 C22.7511334,20.4382551 23.0837873,20.0734152 23.4336136,19.6545559 C23.9576171,19.0265858 24.5174373,18.2780654 25.0188714,17.5603572 C25.5207961,16.8425018 25.963844,16.1570778 26.2557748,15.651326 C26.4265175,15.3544889 26.6831223,14.8966727 26.9225546,14.4278662 C27.0422707,14.1933893 27.1575711,13.9561649 27.2556991,13.7337578 C27.2576617,13.7296364 27.2591336,13.7257603 27.2610962,13.721688 C27.288572,13.773843 27.313104,13.8217786 27.3327296,13.8633358 C27.3852281,13.9722088 27.460296,14.1620865 27.5294762,14.3519642 C27.5996378,14.5423815 27.6653835,14.7364787 27.7046347,14.8623769 C27.7487923,15.0036813 27.8130662,15.2195138 27.8699804,15.434316 C27.9273853,15.6480388 27.9774306,15.8658829 27.9926404,15.9905545 Z" id="Combined-Shape" fill="#FFFFFF"></path>
    </g>
</svg>