<?xml version="1.0" encoding="UTF-8"?>
<svg width="32px" height="32px" viewBox="0 0 32 32" version="1.1" xmlns="http://www.w3.org/2000/svg" xmlns:xlink="http://www.w3.org/1999/xlink">
    <!-- Generator: Sketch 51.1 (57501) - http://www.bohemiancoding.com/sketch -->
    <title>svg/icon/stq</title>
    <desc>Created with Sketch.</desc>
    <defs>
        <linearGradient x1="50%" y1="0%" x2="50%" y2="100%" id="linearGradient-1">
            <stop stop-color="#FFFFFF" stop-opacity="0.5" offset="0%"></stop>
            <stop stop-color="#000000" stop-opacity="0.5" offset="100%"></stop>
        </linearGradient>
        <circle id="path-2" cx="16" cy="15" r="15"></circle>
        <filter x="-5.8%" y="-4.2%" width="111.7%" height="111.7%" filterUnits="objectBoundingBox" id="filter-3">
            <feOffset dx="0" dy="0.5" in="SourceAlpha" result="shadowOffsetOuter1"></feOffset>
            <feGaussianBlur stdDeviation="0.5" in="shadowOffsetOuter1" result="shadowBlurOuter1"></feGaussianBlur>
            <feComposite in="shadowBlurOuter1" in2="SourceAlpha" operator="out" result="shadowBlurOuter1"></feComposite>
            <feColorMatrix values="0 0 0 0 0   0 0 0 0 0   0 0 0 0 0  0 0 0 0.199473505 0" type="matrix" in="shadowBlurOuter1"></feColorMatrix>
        </filter>
        <path d="M5.01308907,12.0128958 C5.37177319,12.0128958 5.74241345,11.9889835 6.10109757,12.0208665 C6.26051274,12.2002086 6.29638115,12.4512875 6.4199279,12.6585272 C8.03002107,12.666498 9.648085,12.6585272 11.2581782,12.6585272 C11.3777395,12.666498 11.5251986,12.6704833 11.5849793,12.7900447 C11.6567161,12.9215622 11.6049062,13.076992 11.5371547,13.1965534 C11.2103536,13.7505211 10.8994941,14.3124595 10.5806637,14.8704126 C10.4611023,15.0696816 10.3813948,15.2928628 10.2020527,15.4482926 C10.0545937,15.5718394 9.85133934,15.5798101 9.66402652,15.5798101 L7.4322142,15.5798101 C7.31265283,15.5798101 7.1851207,15.567854 7.11338387,15.4722049 C6.88223188,15.2131552 6.75868513,14.8823688 6.60724072,14.5794799 C6.3442057,14.0534099 6.08914143,13.5273399 5.83806255,12.9972844 C5.78625262,12.8777231 5.72248655,12.7701178 5.66270587,12.6585272 C5.45148077,12.6585272 5.24025568,12.6585272 5.03301596,12.6505564 C4.99316217,12.4393313 4.99316217,12.2241209 5.01308907,12.0128958 Z M14.7374142,12.0208665 C15.3192795,11.9491297 15.944984,12.056735 16.4112734,12.4313606 C16.7022061,12.666498 16.8217674,13.108875 16.6583669,13.4516176 C16.5388055,13.6907404 16.259829,13.8302287 16.0007793,13.802331 C15.7748629,13.7727742 15.5627222,13.6771029 15.3910163,13.5273399 C15.2515281,13.42372 15.0801568,13.2961879 14.8968293,13.3599539 C14.7932095,13.4316908 14.7852387,13.5990767 14.8928439,13.6708135 C15.1239959,13.8461702 15.4268848,13.8700825 15.6899198,13.9896438 C16.1243261,14.1729713 16.5866301,14.4280355 16.785899,14.8783834 C17.0423354,15.4608918 16.963018,16.1366154 16.5786593,16.6439063 C16.3455969,16.9097101 16.0413716,17.103308 15.7018759,17.2018594 C15.3750748,17.3094647 15.0243615,17.2855524 14.6856042,17.281567 C14.2592962,17.2559523 13.8507664,17.1017114 13.5139028,16.8391899 C13.2468824,16.6439063 13.0755111,16.3210906 13.095438,15.9863188 C13.0874672,15.7073422 13.27478,15.4482926 13.5258589,15.3406874 C13.7091863,15.2609798 13.9243968,15.2569944 14.115695,15.3207605 C14.4185838,15.4164096 14.609882,15.7073422 14.9207416,15.799006 C15.0124053,15.830889 15.1319667,15.8229182 15.187762,15.7312545 C15.2395719,15.6116931 15.2037035,15.452278 15.0801568,15.3964827 C14.6337943,15.1653307 14.1037389,15.10555 13.705201,14.7747635 C13.1193502,14.3124595 13.0675403,13.3998077 13.4421659,12.7860593 C13.7468663,12.3579976 14.2192789,12.0797668 14.7413995,12.0208665 L14.7374142,12.0208665 Z M22.2060147,12.7860593 C22.7161432,12.26796 23.4454676,11.9889835 24.1708066,12.0009396 C24.8417603,11.9938971 25.4907005,12.2400959 25.9881395,12.6904102 C26.5781306,13.1904596 26.8984877,13.9389438 26.8529667,14.7109975 C26.844996,15.0577254 26.72942,15.3885119 26.613844,15.7073422 C26.7413761,15.8667574 26.9047767,16.0142164 26.960572,16.2174708 C27.0318221,16.4355109 27.0056818,16.6736776 26.8888351,16.8710729 C26.7334054,17.0982396 26.4942826,17.3094647 26.2033499,17.2935231 C25.9443003,17.3094647 25.7251044,17.165991 25.5178647,17.0304881 C25.4301864,16.9587513 25.3225811,17.0145466 25.2349028,17.050415 C24.581165,17.3550114 23.8317212,17.3809039 23.1585203,17.1221518 C22.4995087,16.8739543 21.9652216,16.3754774 21.6719739,15.7352399 C21.451019,15.2446266 21.3829685,14.6988337 21.4766903,14.1689859 C21.568354,13.6469012 21.8353744,13.1646704 22.2060147,12.7860593 Z M17.4434866,12.2480331 C17.7025362,12.1364425 17.9934689,12.1444133 18.2724455,12.1404279 L20.464404,12.1404279 C20.7473659,12.1563694 21.0901085,12.1762963 21.2694506,12.4313606 C21.5324856,12.7541763 21.4687195,13.2961879 21.1100354,13.5273399 C20.8230881,13.7385649 20.4484625,13.6708135 20.1136906,13.686755 C20.0972413,13.8815766 20.0919188,14.0771779 20.0977491,14.2726058 L20.0977491,16.2254415 C20.1057199,16.4884766 20.0220269,16.7594823 19.8347141,16.9467952 C19.47603,17.2935231 18.7985155,17.2377278 18.5314951,16.8033215 C18.4420332,16.6540629 18.3951696,16.4831485 18.3959922,16.3091345 C18.3880214,15.4323511 18.4119337,14.5555677 18.3880214,13.6787843 C18.1010742,13.6508866 17.7981853,13.7066819 17.5271796,13.5871205 C17.3420386,13.5196 17.1933278,13.3781082 17.1166855,13.1965534 C16.9811826,12.8577962 17.1047294,12.4114337 17.4434866,12.2480331 Z M7.5278633,16.0102311 C7.68727847,15.9703773 7.85864977,15.9703773 8.02205031,16.0022603 C8.20537775,16.0421141 8.36479292,16.1816024 8.40863209,16.3649298 C8.45645664,16.5761549 8.45645664,16.8033215 8.37276368,17.0065758 C8.2930561,17.1899033 8.09378714,17.2775816 7.90647432,17.2935231 C7.69126385,17.3094647 7.44417034,17.2935231 7.28475517,17.134108 C7.11338387,16.9428098 7.11338387,16.6638332 7.14925228,16.4247105 C7.17316456,16.2254415 7.33257972,16.0540702 7.5278633,16.0062457 L7.5278633,16.0102311 Z M9.52055287,16.0102311 C9.71982183,15.9663919 9.9350323,15.9703773 10.1263305,16.0421141 C10.3096579,16.1178363 10.405307,16.3171052 10.4212486,16.5044181 C10.4451608,16.7236139 10.4212486,16.9746928 10.2618334,17.1420787 C10.1143744,17.281567 9.89916389,17.3014939 9.70388031,17.2975085 C9.51258211,17.2895378 9.3053424,17.2178009 9.20570792,17.0384589 C9.1115393,16.8440584 9.08624354,16.6234231 9.13397109,16.4127543 C9.17382488,16.2174708 9.32526929,16.0540702 9.52055287,16.0062457 L9.52055287,16.0102311 Z" id="path-4"></path>
        <filter x="-8.0%" y="-23.6%" width="115.9%" height="166.0%" filterUnits="objectBoundingBox" id="filter-5">
            <feOffset dx="0" dy="0.5" in="SourceAlpha" result="shadowOffsetOuter1"></feOffset>
            <feGaussianBlur stdDeviation="0.5" in="shadowOffsetOuter1" result="shadowBlurOuter1"></feGaussianBlur>
            <feColorMatrix values="0 0 0 0 0   0 0 0 0 0   0 0 0 0 0  0 0 0 0.2 0" type="matrix" in="shadowBlurOuter1"></feColorMatrix>
        </filter>
    </defs>
    <g id="icon/stq" stroke="none" stroke-width="1" fill="none" fill-rule="evenodd">
        <g id="Oval" fill-rule="nonzero">
            <use fill="black" fill-opacity="1" filter="url(#filter-3)" xlink:href="#path-2"></use>
            <use fill="#5AC9FF" xlink:href="#path-2"></use>
            <use fill="url(#linearGradient-1)" style="mix-blend-mode: soft-light;" xlink:href="#path-2"></use>
            <circle stroke-opacity="0.0970052083" stroke="#000000" stroke-width="1" stroke-linejoin="square" cx="16" cy="15" r="14.5"></circle>
        </g>
        <g id="Shape">
            <use fill="black" fill-opacity="1" filter="url(#filter-5)" xlink:href="#path-4"></use>
            <use fill="#FFFFFF" fill-rule="evenodd" xlink:href="#path-4"></use>
        </g>
    </g>
</svg>